<svg width="18" height="15" viewBox="0 0 18 15" fill="none" xmlns="http://www.w3.org/2000/svg">
<path fill-rule="evenodd" clip-rule="evenodd" d="M16.6582 0.195657C17.2624 0.558709 17.4318 1.3021 17.0366 1.85724L8.15095 14.3432C8.04742 14.4886 7.91074 14.6117 7.75036 14.7039C7.58998 14.7961 7.40972 14.8552 7.22205 14.8771C7.03437 14.8991 6.84376 14.8833 6.66337 14.8309C6.48299 14.7785 6.31714 14.6907 6.17728 14.5737L0.427729 9.77139C0.171273 9.55717 0.0179452 9.25811 0.00147735 8.94002C-0.0149905 8.62193 0.10675 8.31085 0.339918 8.07523C0.573085 7.83961 0.898579 7.69874 1.2448 7.68361C1.59101 7.66848 1.92959 7.78033 2.18605 7.99455L6.80242 11.8498L14.8497 0.543341C15.0394 0.276939 15.3365 0.0906555 15.6756 0.0254554C16.0147 -0.0397448 16.3682 0.0214763 16.6582 0.195657V0.195657Z" fill="white"/>
</svg>
