<svg width="15" height="15" viewBox="0 0 15 15" fill="none" xmlns="http://www.w3.org/2000/svg">
<path fill-rule="evenodd" clip-rule="evenodd" d="M14.4854 0.185179C15.0108 0.528788 15.1581 1.23237 14.8145 1.75778L7.08778 13.575C6.99775 13.7127 6.8789 13.8292 6.73944 13.9165C6.59998 14.0037 6.44324 14.0597 6.28004 14.0804C6.11685 14.1012 5.95109 14.0862 5.79424 14.0366C5.63738 13.9871 5.49316 13.904 5.37155 13.7932L0.371938 9.24811C0.148933 9.04536 0.0156045 8.76232 0.00128465 8.46126C-0.0130352 8.1602 0.0928261 7.86579 0.29558 7.64278C0.498335 7.41978 0.781373 7.28645 1.08243 7.27213C1.38349 7.25781 1.6779 7.36367 1.90091 7.56642L5.91514 11.2152L12.9128 0.514244C13.0777 0.262108 13.336 0.0858007 13.631 0.0240922C13.9259 -0.0376164 14.2332 0.0203262 14.4854 0.185179Z" fill="white"/>
</svg>
