<svg width="29" height="29" viewBox="0 0 29 29" fill="none" xmlns="http://www.w3.org/2000/svg">
<g clip-path="url(#clip0)">
<path fill-rule="evenodd" clip-rule="evenodd" d="M0 14.5812C0 21.7902 5.19057 27.7849 11.9792 29.0005V18.5277H8.38542V14.5002H11.9792V11.2776C11.9792 7.6525 14.2947 5.63938 17.5698 5.63938C18.6072 5.63938 19.7261 5.80009 20.7635 5.96081V9.66682H18.9271C17.1697 9.66682 16.7708 10.5525 16.7708 11.6811V14.5002H20.6042L19.9657 18.5277H16.7708V29.0005C23.5594 27.7849 28.75 21.7914 28.75 14.5812C28.75 6.56136 22.2813 0 14.375 0C6.46875 0 0 6.56136 0 14.5812Z" fill="#808080"/>
</g>
<defs>
<clipPath id="clip0">
<rect width="28.75" height="29.0005" fill="white"/>
</clipPath>
</defs>
</svg>
