<svg width="23" height="22" viewBox="0 0 23 22" fill="none" xmlns="http://www.w3.org/2000/svg">
<path d="M12.4584 7.92444H10.5418V6.16345H12.4584V7.92444ZM12.4584 9.68543H10.5418V14.9684H12.4584V9.68543ZM11.5001 3.52197C7.27384 3.52197 3.83342 6.68294 3.83342 10.5659C3.83342 14.4489 7.27384 17.6099 11.5001 17.6099C15.7263 17.6099 19.1668 14.4489 19.1668 10.5659C19.1668 6.68294 15.7263 3.52197 11.5001 3.52197ZM11.5001 1.76099C16.793 1.76099 21.0834 5.70295 21.0834 10.5659C21.0834 15.4289 16.793 19.3709 11.5001 19.3709C6.20721 19.3709 1.91675 15.4289 1.91675 10.5659C1.91675 5.70295 6.20721 1.76099 11.5001 1.76099Z" fill="white"/>
</svg>
