<svg width="18" height="18" viewBox="0 0 18 18" fill="none" xmlns="http://www.w3.org/2000/svg">
<path d="M9.83341 6.49999H8.16675V4.83332H9.83341V6.49999ZM9.83341 8.16666H8.16675V13.1667H9.83341V8.16666ZM9.00008 2.33332C5.32508 2.33332 2.33341 5.32499 2.33341 8.99999C2.33341 12.675 5.32508 15.6667 9.00008 15.6667C12.6751 15.6667 15.6667 12.675 15.6667 8.99999C15.6667 5.32499 12.6751 2.33332 9.00008 2.33332ZM9.00008 0.666656C13.6026 0.666656 17.3334 4.39749 17.3334 8.99999C17.3334 13.6025 13.6026 17.3333 9.00008 17.3333C4.39758 17.3333 0.666748 13.6025 0.666748 8.99999C0.666748 4.39749 4.39758 0.666656 9.00008 0.666656Z" fill="white"/>
</svg>
