<svg width="30" height="29" viewBox="0 0 30 29" fill="none" xmlns="http://www.w3.org/2000/svg">
<path fill-rule="evenodd" clip-rule="evenodd" d="M9.30016 1.28813C10.7615 1.22287 11.2275 1.20837 14.95 1.20837C18.6726 1.20837 19.1385 1.22408 20.5986 1.28813C22.0587 1.35217 23.0554 1.57813 23.9275 1.90559C24.8407 2.24031 25.6692 2.76352 26.3544 3.4402C27.052 4.10359 27.5902 4.90593 27.9341 5.79287C28.2729 6.63871 28.5047 7.6054 28.5719 9.01917C28.6392 10.439 28.6542 10.8909 28.6542 14.5003C28.6542 18.1108 28.638 18.5627 28.5719 19.9801C28.5059 21.3939 28.2729 22.3606 27.9341 23.2064C27.5902 24.0935 27.0511 24.8972 26.3544 25.5615C25.6692 26.2382 24.8407 26.7602 23.9275 27.0937C23.0554 27.4224 22.0587 27.6471 20.6011 27.7124C19.1385 27.7776 18.6726 27.7921 14.95 27.7921C11.2275 27.7921 10.7615 27.7764 9.30016 27.7124C7.84253 27.6483 6.84587 27.4224 5.97378 27.0937C5.05924 26.7602 4.23064 26.2373 3.54566 25.5615C2.84846 24.8977 2.30894 24.0944 1.9647 23.2077C1.62707 22.3618 1.39535 21.3951 1.32807 19.9813C1.2608 18.5615 1.24585 18.1096 1.24585 14.5003C1.24585 10.8897 1.26205 10.4378 1.32807 9.02159C1.3941 7.6054 1.62707 6.63871 1.9647 5.79287C2.30945 4.90603 2.84938 4.10276 3.5469 3.43899C4.23091 2.76292 5.05869 2.23964 5.97254 1.90559C6.84462 1.57813 7.84129 1.35338 9.29891 1.28813H9.30016ZM20.4877 3.68066C19.0426 3.61662 18.609 3.60333 14.95 3.60333C11.291 3.60333 10.8574 3.61662 9.41228 3.68066C8.0755 3.73987 7.35043 3.95617 6.86705 4.13863C6.22793 4.3803 5.77071 4.66668 5.29107 5.1319C4.8364 5.56092 4.48649 6.08321 4.26699 6.66046C4.07887 7.1293 3.85587 7.83257 3.79482 9.12913C3.72879 10.5308 3.71509 10.9513 3.71509 14.5003C3.71509 18.0492 3.72879 18.4697 3.79482 19.8714C3.85587 21.168 4.07887 21.8712 4.26699 22.3401C4.48626 22.9164 4.83634 23.4397 5.29107 23.8686C5.73334 24.3097 6.27278 24.6492 6.86705 24.8619C7.35043 25.0443 8.0755 25.2606 9.41228 25.3199C10.8574 25.3839 11.2898 25.3972 14.95 25.3972C18.6103 25.3972 19.0426 25.3839 20.4877 25.3199C21.8245 25.2606 22.5496 25.0443 23.033 24.8619C23.6721 24.6202 24.1293 24.3338 24.609 23.8686C25.0637 23.4397 25.4138 22.9164 25.633 22.3401C25.8211 21.8712 26.0441 21.168 26.1052 19.8714C26.1712 18.4697 26.1849 18.0492 26.1849 14.5003C26.1849 10.9513 26.1712 10.5308 26.1052 9.12913C26.0441 7.83257 25.8211 7.1293 25.633 6.66046C25.3839 6.04058 25.0886 5.59711 24.609 5.1319C24.1666 4.69093 23.6281 4.35156 23.033 4.13863C22.5496 3.95617 21.8245 3.73987 20.4877 3.68066V3.68066ZM13.1996 18.5978C14.1772 18.9925 15.2657 19.0457 16.2792 18.7485C17.2928 18.4512 18.1685 17.8219 18.7568 16.968C19.3451 16.1141 19.6095 15.0886 19.5048 14.0666C19.4002 13.0446 18.9329 12.0896 18.1829 11.3646C17.7048 10.9012 17.1267 10.5463 16.4903 10.3256C15.8538 10.1049 15.1748 10.0237 14.5021 10.0881C13.8295 10.1524 13.1799 10.3607 12.6001 10.6977C12.0204 11.0348 11.5249 11.4924 11.1494 12.0375C10.7738 12.5826 10.5275 13.2016 10.4283 13.8501C10.329 14.4986 10.3792 15.1604 10.5753 15.7878C10.7714 16.4152 11.1085 16.9926 11.5622 17.4785C12.016 17.9644 12.5752 18.3467 13.1996 18.5978ZM9.96917 9.66926C10.6233 9.03485 11.3998 8.5316 12.2544 8.18826C13.109 7.84492 14.025 7.6682 14.95 7.6682C15.875 7.6682 16.791 7.84491 17.6456 8.18826C18.5002 8.5316 19.2768 9.03485 19.9308 9.66926C20.5849 10.3037 21.1038 11.0568 21.4578 11.8857C21.8118 12.7146 21.994 13.6031 21.994 14.5003C21.994 15.3975 21.8118 16.2859 21.4578 17.1148C21.1038 17.9437 20.5849 18.6968 19.9308 19.3313C18.6098 20.6125 16.8182 21.3323 14.95 21.3323C13.0818 21.3323 11.2902 20.6125 9.96917 19.3313C8.64817 18.05 7.90604 16.3122 7.90604 14.5003C7.90604 12.6883 8.64817 10.9505 9.96917 9.66926V9.66926ZM23.5562 8.68566C23.7183 8.53736 23.8481 8.35902 23.9378 8.16121C24.0276 7.96339 24.0755 7.75012 24.0787 7.53402C24.082 7.31792 24.0405 7.10338 23.9567 6.90311C23.873 6.70284 23.7486 6.52091 23.5911 6.36809C23.4335 6.21527 23.2459 6.09466 23.0394 6.01341C22.833 5.93216 22.6118 5.89192 22.389 5.89507C22.1662 5.89822 21.9463 5.9447 21.7423 6.03175C21.5384 6.11881 21.3545 6.24466 21.2016 6.40188C20.9042 6.70762 20.7414 7.11374 20.7477 7.53402C20.7541 7.95429 20.929 8.35564 21.2354 8.65285C21.5419 8.95006 21.9557 9.11974 22.389 9.12587C22.8223 9.13199 23.241 8.97408 23.5562 8.68566V8.68566Z" fill="#808080"/>
</svg>
