<svg width="24" height="23" viewBox="0 0 24 23" fill="none" xmlns="http://www.w3.org/2000/svg">
<path fill-rule="evenodd" clip-rule="evenodd" d="M7.087 0.110498C8.35775 0.054248 8.76292 0.041748 11.9999 0.041748C15.2369 0.041748 15.6421 0.0552897 16.9117 0.110498C18.1814 0.165706 19.0481 0.360498 19.8064 0.64279C20.6005 0.931331 21.3209 1.38237 21.9167 1.96571C22.5234 2.53758 22.9914 3.22925 23.2904 3.99383C23.5851 4.723 23.7866 5.55633 23.8451 6.77508C23.9036 7.99904 23.9166 8.38862 23.9166 11.5001C23.9166 14.6126 23.9025 15.0022 23.8451 16.224C23.7877 17.4428 23.5851 18.2761 23.2904 19.0053C22.9914 19.77 22.5226 20.4628 21.9167 21.0355C21.3209 21.6188 20.6005 22.0688 19.8064 22.3563C19.0481 22.6397 18.1814 22.8334 16.9139 22.8897C15.6421 22.9459 15.2369 22.9584 11.9999 22.9584C8.76292 22.9584 8.35775 22.9449 7.087 22.8897C5.8195 22.8345 4.95283 22.6397 4.1945 22.3563C3.39925 22.0688 2.67872 21.6181 2.08308 21.0355C1.47683 20.4633 1.00768 19.7708 0.708335 19.0063C0.414752 18.2772 0.213252 17.4438 0.154752 16.2251C0.0962519 15.0011 0.083252 14.6115 0.083252 11.5001C0.083252 8.38758 0.0973353 7.998 0.154752 6.77716C0.212169 5.55633 0.414752 4.723 0.708335 3.99383C1.00812 3.22933 1.47763 2.53687 2.08417 1.96466C2.67896 1.38185 3.39876 0.930751 4.19342 0.64279C4.95175 0.360498 5.81842 0.166748 7.08592 0.110498H7.087ZM16.8153 2.173C15.5587 2.11779 15.1817 2.10633 11.9999 2.10633C8.81817 2.10633 8.44117 2.11779 7.1845 2.173C6.02208 2.22404 5.39158 2.4105 4.97125 2.56779C4.4155 2.77612 4.01792 3.023 3.60083 3.42404C3.20547 3.79388 2.9012 4.24412 2.71033 4.74175C2.54675 5.14591 2.35283 5.75216 2.29975 6.86987C2.24233 8.07821 2.23042 8.44071 2.23042 11.5001C2.23042 14.5595 2.24233 14.922 2.29975 16.1303C2.35283 17.248 2.54675 17.8542 2.71033 18.2584C2.901 18.7553 3.20542 19.2063 3.60083 19.5761C3.98542 19.9563 4.4545 20.249 4.97125 20.4324C5.39158 20.5897 6.02208 20.7761 7.1845 20.8272C8.44117 20.8824 8.81708 20.8938 11.9999 20.8938C15.1827 20.8938 15.5587 20.8824 16.8153 20.8272C17.9777 20.7761 18.6082 20.5897 19.0286 20.4324C19.5843 20.224 19.9819 19.9772 20.399 19.5761C20.7944 19.2063 21.0988 18.7553 21.2895 18.2584C21.4531 17.8542 21.647 17.248 21.7001 16.1303C21.7575 14.922 21.7694 14.5595 21.7694 11.5001C21.7694 8.44071 21.7575 8.07821 21.7001 6.86987C21.647 5.75216 21.4531 5.14591 21.2895 4.74175C21.0728 4.20737 20.8161 3.82508 20.399 3.42404C20.0143 3.04391 19.5461 2.75134 19.0286 2.56779C18.6082 2.4105 17.9777 2.22404 16.8153 2.173ZM10.4778 15.0324C11.3279 15.3726 12.2744 15.4185 13.1558 15.1623C14.0371 14.906 14.7986 14.3635 15.3102 13.6274C15.8217 12.8913 16.0516 12.0072 15.9606 11.1262C15.8696 10.2452 15.4633 9.42193 14.8112 8.79696C14.3954 8.39745 13.8927 8.09155 13.3393 7.90127C12.7858 7.711 12.1954 7.64108 11.6105 7.69655C11.0255 7.75203 10.4607 7.93151 9.95654 8.22209C9.45241 8.51267 9.02156 8.90711 8.69499 9.37701C8.36843 9.84691 8.15429 10.3806 8.06798 10.9396C7.98166 11.4987 8.02533 12.0691 8.19584 12.61C8.36634 13.1509 8.65944 13.6486 9.05403 14.0675C9.44862 14.4864 9.93489 14.8159 10.4778 15.0324ZM7.66875 7.3355C8.23753 6.7886 8.91276 6.35477 9.65591 6.05879C10.399 5.76281 11.1955 5.61047 11.9999 5.61047C12.8043 5.61047 13.6008 5.76281 14.3439 6.05879C15.0871 6.35477 15.7623 6.7886 16.3311 7.3355C16.8999 7.8824 17.351 8.53166 17.6589 9.24622C17.9667 9.96078 18.1251 10.7266 18.1251 11.5001C18.1251 12.2735 17.9667 13.0394 17.6589 13.7539C17.351 14.4685 16.8999 15.1178 16.3311 15.6647C15.1824 16.7692 13.6244 17.3897 11.9999 17.3897C10.3754 17.3897 8.81745 16.7692 7.66875 15.6647C6.52005 14.5601 5.87472 13.0621 5.87472 11.5001C5.87472 9.93806 6.52005 8.44001 7.66875 7.3355ZM19.4836 6.48758C19.6245 6.35974 19.7374 6.206 19.8154 6.03547C19.8935 5.86494 19.9351 5.68109 19.938 5.4948C19.9408 5.30851 19.9047 5.12357 19.8319 4.95092C19.759 4.77828 19.6509 4.62145 19.5139 4.4897C19.3769 4.35796 19.2138 4.25399 19.0342 4.18395C18.8547 4.11391 18.6623 4.07922 18.4686 4.08194C18.2748 4.08465 18.0836 4.12472 17.9063 4.19976C17.7289 4.27481 17.569 4.38331 17.4361 4.51883C17.1775 4.7824 17.0359 5.1325 17.0414 5.4948C17.0469 5.8571 17.199 6.20308 17.4655 6.45929C17.732 6.7155 18.0918 6.86178 18.4686 6.86706C18.8454 6.87234 19.2095 6.73622 19.4836 6.48758Z" fill="#808080"/>
</svg>
