<svg width="22" height="25" viewBox="0 0 22 25" fill="none" xmlns="http://www.w3.org/2000/svg">
<path d="M1.83271 21.9203C1.65162 21.9203 1.47795 21.8388 1.34989 21.6937C1.22184 21.5486 1.1499 21.3518 1.1499 21.1466V4.12449C1.14992 3.99004 1.18086 3.85791 1.23967 3.74114C1.29848 3.62436 1.38312 3.52697 1.48527 3.45855C1.58741 3.39014 1.70352 3.35306 1.82216 3.35098C1.9408 3.34891 2.05787 3.3819 2.16183 3.4467L15.818 11.9577C15.9251 12.0245 16.0144 12.1227 16.0766 12.2419C16.1387 12.3611 16.1715 12.4971 16.1715 12.6355C16.1715 12.774 16.1387 12.91 16.0766 13.0292C16.0144 13.1484 15.9251 13.2465 15.818 13.3133L2.16183 21.8244C2.06101 21.8873 1.9478 21.9203 1.83271 21.9203Z" fill="black"/>
</svg>
