<svg width="14" height="18" viewBox="0 0 14 18" fill="none" xmlns="http://www.w3.org/2000/svg">
<path d="M0.59375 17.7463C0.436278 17.7463 0.285255 17.6691 0.173905 17.5318C0.0625557 17.3945 0 17.2082 0 17.014V0.903584C1.76646e-05 0.776333 0.026921 0.651284 0.0780585 0.540762C0.129196 0.430241 0.202802 0.338062 0.291622 0.273311C0.380442 0.208559 0.48141 0.173471 0.584574 0.171505C0.687738 0.169538 0.789537 0.200761 0.879938 0.262096L12.7549 8.3173C12.848 8.38052 12.9257 8.47339 12.9797 8.58623C13.0338 8.69906 13.0623 8.82773 13.0623 8.95879C13.0623 9.08986 13.0338 9.21852 12.9797 9.33136C12.9257 9.44419 12.848 9.53706 12.7549 9.60028L0.879938 17.6555C0.792271 17.715 0.693826 17.7463 0.59375 17.7463Z" fill="black"/>
</svg>
