<svg width="19" height="18" viewBox="0 0 19 18" fill="none" xmlns="http://www.w3.org/2000/svg">
<path d="M18.6879 15.7932L15.1001 12.5066C16.2577 11.1517 16.8858 9.47851 16.8834 7.75604C16.8834 6.22204 16.3884 4.72249 15.4608 3.44702C14.5332 2.17154 13.2148 1.17743 11.6722 0.590396C10.1297 0.00336054 8.43236 -0.150235 6.79483 0.149033C5.15729 0.448302 3.65312 1.18699 2.47253 2.27169C1.29193 3.35639 0.487935 4.73839 0.162209 6.24291C-0.163517 7.74743 0.00365764 9.30691 0.642592 10.7241C1.28153 12.1414 2.36352 13.3527 3.75176 14.2049C5.13999 15.0572 6.77211 15.5121 8.44173 15.5121C10.3165 15.5142 12.1376 14.9371 13.6123 13.8736L17.1895 17.1699C17.2876 17.2608 17.4043 17.3329 17.5329 17.3821C17.6614 17.4314 17.7994 17.4567 17.9387 17.4567C18.078 17.4567 18.2159 17.4314 18.3445 17.3821C18.4731 17.3329 18.5898 17.2608 18.6879 17.1699C18.7868 17.0798 18.8653 16.9726 18.9188 16.8544C18.9724 16.7363 19 16.6096 19 16.4816C19 16.3536 18.9724 16.2269 18.9188 16.1087C18.8653 15.9906 18.7868 15.8834 18.6879 15.7932V15.7932ZM2.11043 7.75604C2.11043 6.60554 2.48176 5.48088 3.17745 4.52427C3.87314 3.56767 4.86195 2.82208 6.01885 2.38181C7.17574 1.94153 8.44875 1.82633 9.6769 2.05078C10.9051 2.27524 12.0332 2.82925 12.9186 3.64278C13.8041 4.45631 14.4071 5.4928 14.6514 6.62119C14.8957 7.74958 14.7703 8.91919 14.2911 9.98212C13.8119 11.045 13.0004 11.9535 11.9592 12.5927C10.918 13.2319 9.69394 13.5731 8.44173 13.5731C6.76256 13.5731 5.15217 12.9602 3.96483 11.8693C2.77748 10.7784 2.11043 9.29881 2.11043 7.75604Z" fill="white"/>
</svg>
