<svg width="251" height="84" viewBox="0 0 251 84" fill="none" xmlns="http://www.w3.org/2000/svg">
<g clip-path="url(#clip0)">
<path d="M52.8977 12.4975C51.7904 11.9024 50.4952 11.6144 49.0327 11.6144L49.0536 34.421C49.0536 34.6898 49.0536 34.9202 49.0536 35.0929C49.0536 35.88 49.1163 36.5711 49.2208 37.2047C49.3252 37.8382 49.5759 38.3949 49.9311 38.8748C50.2862 39.374 50.6832 39.7003 51.101 39.8539C51.5189 40.0267 52.062 40.1035 52.7097 40.1035V41.4089H35.9755V40.1227C36.0799 40.1035 36.2262 40.0843 36.3933 40.0843C37.1872 40.0843 37.9393 39.7195 38.6496 38.99C39.0674 38.5485 39.339 38.0877 39.4226 37.627C39.5061 37.1663 39.5479 36.4559 39.5479 35.4961V11.5952C38.3362 11.5952 37.2707 11.7872 36.4142 12.152C35.5367 12.5167 34.5966 13.1502 33.5729 14.0525C33.0715 14.5133 32.5492 15.2044 32.0478 16.0875C31.442 17.1625 31.045 18.0648 30.857 18.8327L29.9378 18.6215L32.1314 7.00706C32.403 7.27582 32.7372 7.50619 33.1342 7.71736C33.3013 7.77496 33.5311 7.83255 33.8236 7.85175C34.1161 7.87094 34.2832 7.89014 34.325 7.89014C34.8473 7.89014 35.1398 7.89014 35.2025 7.89014H53.5245C53.8378 7.89014 54.1094 7.89014 54.3392 7.87094C54.5899 7.85174 54.9242 7.77495 55.3629 7.64057C55.8016 7.50619 56.2195 7.29502 56.6373 7.00706L58.6847 18.6215L57.7655 18.9287C57.4103 17.5849 56.8253 16.3562 55.9688 15.2428C55.0287 13.9949 54.005 13.0926 52.8977 12.4975ZM120.754 41.3897H118.121H104.96V40.0843C105.482 39.9691 105.879 39.8347 106.151 39.6811C106.965 39.1436 107.362 38.2797 107.362 37.0703C107.362 36.6671 107.341 36.36 107.3 36.1296C107.153 35.0929 106.548 33.9219 105.503 32.6165C104.354 31.215 103.079 30.1592 101.68 29.4681C101.137 29.1993 100.322 28.9689 99.2563 28.7578C98.1908 28.5466 97.3134 28.4314 96.6031 28.4314L94.4512 35.2273C94.1796 36.0336 94.0543 36.9167 94.0543 37.8766C94.0543 38.3373 94.0961 38.6637 94.2005 38.8556C94.4512 39.2588 94.7228 39.5467 95.0153 39.7387C95.3287 39.9307 95.6629 40.0651 96.0599 40.1227V41.3705H91.4846H85.9274H76.1083V40.1611C76.6515 40.0843 77.1529 39.9115 77.6125 39.6235C77.8632 39.4699 77.9886 39.1628 77.9886 38.7212C77.9886 38.1261 77.7588 37.2622 77.3201 36.168C77.0067 35.4385 76.171 33.7107 74.7922 30.9847C74.3952 30.1976 73.8729 29.3529 73.2462 28.4122C72.6194 27.4715 72.0136 26.5501 71.4077 25.6286L69.7991 26.4733V35.9184C69.7991 36.6287 69.8408 37.2238 69.9453 37.6846C70.0289 38.1453 70.196 38.5293 70.4467 38.8748C70.781 39.3164 71.0943 39.6235 71.3868 39.7771C71.5331 39.8347 71.8882 39.9499 72.4523 40.0843V41.3897H57.8908V40.0843C58.246 40.0843 58.5176 40.0267 58.7265 39.9307C58.9354 39.8347 59.207 39.6427 59.4995 39.374C59.8964 39.0092 60.168 38.6061 60.2934 38.1453C60.4187 37.6846 60.4814 37.0703 60.4814 36.3024L60.5441 14.3981C60.5441 13.707 60.5441 13.1694 60.5232 12.7855C60.4396 11.5952 60.2934 10.789 60.0427 10.3474C59.8128 9.90587 59.5413 9.59871 59.2279 9.42594C58.9145 9.25316 58.5593 9.17637 58.1206 9.17637V7.87094H79.4928C81.8744 7.87094 83.692 8.27409 84.9455 9.08038C86.199 9.88667 86.9093 11.0385 87.0974 12.5551C87.1391 12.9583 87.16 13.2462 87.16 13.419C87.16 15.07 86.5751 16.625 85.426 18.0648C84.5904 19.0823 83.504 20.0421 82.1669 20.906C81.1432 21.5587 80.5583 21.8659 80.3911 21.8659C81.4775 23.3633 82.4176 24.7455 83.2115 26.0317C84.0054 27.318 84.862 28.7578 85.7394 30.3704C86.199 31.2342 86.9929 33.1732 88.1002 36.1488C88.3509 36.8207 88.5807 37.3774 88.8105 37.8574C88.894 37.7614 88.9567 37.6654 89.0194 37.5694C89.291 37.1471 89.5417 36.5903 89.7924 35.8416L98.2535 12.0368C98.358 11.768 98.4415 11.4993 98.5251 11.2305C98.6087 10.9617 98.6505 10.7122 98.6505 10.501C98.6505 10.1938 98.5878 9.92507 98.4415 9.7139C98.3162 9.50273 98.1699 9.36834 98.0446 9.29155C97.9192 9.23396 97.773 9.17637 97.6268 9.11878V7.85175H111.144V9.32995C110.663 9.32995 110.329 9.52192 110.141 9.90587C110.057 10.0786 110.016 10.2706 110.016 10.4434C110.016 10.6162 110.036 10.8274 110.099 11.0385C110.12 11.0769 110.183 11.3073 110.308 11.7104L118.247 37.819C118.393 38.0877 118.498 38.2989 118.581 38.4525C118.853 38.9132 119.103 39.2588 119.354 39.4316C119.438 39.5083 119.521 39.5467 119.605 39.6043C120.002 39.2972 120.294 38.7212 120.461 37.8574C120.649 36.9551 120.733 35.9376 120.733 34.805V14.3405C120.733 14.0717 120.733 13.803 120.733 13.4958C120.733 12.7855 120.691 12.0944 120.608 11.4609C120.524 10.8082 120.378 10.3666 120.19 10.117C119.772 9.59871 119.166 9.29155 118.414 9.17637V7.87094H135.879V9.17637C135.67 9.17637 135.503 9.23396 135.336 9.36834C135.19 9.48353 135.044 9.65631 134.898 9.86748C134.751 10.0786 134.689 10.2898 134.689 10.5202C134.689 10.8273 134.772 11.1729 134.96 11.5569C135.044 11.7296 135.19 11.9792 135.378 12.2672L141.52 20.6948V13.1502C141.52 12.9775 141.52 12.8431 141.52 12.7471C141.52 12.152 141.499 11.6912 141.437 11.3649C141.374 11.0577 141.228 10.7122 140.977 10.3474C140.726 9.98266 140.434 9.7139 140.1 9.54112C139.765 9.36834 139.347 9.25316 138.846 9.19557V7.89014H148.059V9.19557C147.809 9.23396 147.579 9.29155 147.328 9.32995C146.952 9.44513 146.618 9.7139 146.325 10.1362C145.949 10.6546 145.74 11.2881 145.636 12.0176C145.552 12.7663 145.49 13.4574 145.49 14.0717V36.3408C145.49 36.7055 145.51 37.1087 145.573 37.5886C145.636 38.0685 145.761 38.4909 145.949 38.8364C146.137 39.2012 146.409 39.4699 146.764 39.6811C147.119 39.8923 147.516 40.0267 147.934 40.0651V41.3705H138.721V40.0651C138.992 40.0651 139.243 40.0267 139.515 39.9307C140.517 39.5659 141.019 38.6637 141.019 37.1855C141.019 36.2064 140.81 35.2849 140.371 34.4018C140.079 33.8067 139.535 32.9812 138.721 31.9254L124.702 13.8797L124.681 36.2832C124.681 36.8399 124.723 37.3198 124.786 37.7038C124.849 38.0877 124.974 38.4717 125.141 38.8172C125.308 39.182 125.538 39.4508 125.851 39.6427C126.144 39.8347 126.541 39.9691 127.021 40.0651V41.3705H120.754V41.3897ZM77.2992 15.0892C77.2992 13.9373 76.8604 13.0159 75.983 12.3439C75.2309 11.768 74.2699 11.4801 73.1208 11.4801C72.327 11.4801 71.5749 11.6336 70.8854 11.9408C70.4885 12.1136 70.2378 12.4207 70.0707 12.8239C69.9244 13.2462 69.8408 13.7262 69.8408 14.2829V22.6914L70.9063 22.3266C72.4523 21.7507 73.8103 20.906 75.0011 19.7734C76.5262 18.3144 77.2992 16.7594 77.2992 15.0892ZM104.479 26.6461L101.074 14.782L98.1491 24.1888C98.3998 24.1888 98.6922 24.208 99.0683 24.2272C99.4235 24.2464 99.9666 24.3808 100.677 24.5919C101.387 24.8223 102.16 25.1678 102.996 25.6286C103.602 25.9933 104.103 26.3197 104.479 26.6461ZM203.548 41.4665C203.965 41.5049 204.362 41.5817 204.717 41.6969L205.762 42.0232L209.731 29.1993L208.687 28.6234C208.332 30.1016 207.517 31.6182 206.243 33.2116C205.094 34.6322 203.903 35.7456 202.67 36.5327C201.834 37.0511 200.915 37.4542 199.912 37.7806C198.91 38.0877 197.928 38.2413 196.967 38.2413C196.089 38.2413 195.316 38.1069 194.648 37.819C193.979 37.531 193.457 37.1279 193.081 36.5711C192.705 36.0144 192.475 35.4769 192.37 34.9585C192.266 34.4402 192.224 33.8259 192.224 33.0772C192.224 32.9428 192.224 32.77 192.224 32.5397C192.224 32.3093 192.224 32.0405 192.224 31.7334V22.1538H196.131C196.57 22.1538 197.134 22.3074 197.781 22.6146C198.429 22.9217 199.014 23.3057 199.515 23.8048C200.017 24.304 200.476 24.9567 200.894 25.8206C201.229 26.5117 201.417 27.0876 201.5 27.5291L202.67 27.3372L200.623 14.5901L199.703 14.8972C199.703 15.0124 199.703 15.1852 199.703 15.3963C199.703 16.3562 199.348 17.1625 198.68 17.8344C198.345 18.1416 197.969 18.3719 197.593 18.4871C197.217 18.6023 196.82 18.6791 196.423 18.6791H192.141V15.0316C192.141 14.3405 192.224 13.7454 192.391 13.227C192.559 12.7087 192.872 12.2864 193.29 11.9216C193.937 11.3841 194.94 11.1153 196.319 11.1153C197.531 11.1153 198.784 11.3457 200.038 11.7872C201.291 12.2288 202.398 12.9007 203.297 13.7646C204.885 15.3004 205.908 17.1817 206.389 19.3894L207.392 18.5447L205.156 7.23743C204.801 7.39101 204.529 7.48699 204.341 7.52539C204.3 7.52539 204.028 7.56378 203.527 7.65977C202.545 7.83255 201.688 7.90934 200.936 7.90934C200.664 7.90934 200.497 7.90934 200.393 7.90934H180.253V9.21476C180.692 9.21476 181.047 9.25316 181.298 9.32995C181.549 9.40674 181.778 9.59871 182.029 9.90587C182.28 10.213 182.426 10.501 182.468 10.8082C182.51 11.1153 182.551 11.5569 182.551 12.1328C182.551 12.1904 182.551 12.3248 182.551 12.4975V36.264C182.551 36.9551 182.51 37.5118 182.405 37.9534C182.322 38.3949 182.113 38.8172 181.778 39.2396C181.528 39.5275 181.319 39.7195 181.152 39.8155C180.985 39.9115 180.588 40.0267 179.982 40.1419V41.4089H202.231C202.691 41.3897 203.13 41.4281 203.548 41.4665ZM177.14 26.4349C177.14 25.7438 177.182 25.1678 177.287 24.7263C177.37 24.2848 177.579 23.8624 177.913 23.4977C178.519 22.749 179.251 22.365 180.086 22.365V21.2324H165.462V22.4802C165.566 22.4802 165.734 22.4802 165.943 22.4802C166.527 22.4802 167.071 22.7298 167.53 23.2097C167.781 23.4785 167.948 23.7472 168.032 24.0544C168.115 24.3424 168.178 24.8607 168.178 25.6286V33.6147C168.178 34.9202 167.906 35.976 167.384 36.7631C166.757 37.6846 165.775 38.1261 164.459 38.1261C161.493 38.1261 159.09 36.4943 157.252 33.2308C155.685 30.4663 154.912 27.3948 154.912 24.016C154.912 23.7472 154.912 23.5169 154.933 23.3441C154.933 23.1713 154.953 22.9793 154.974 22.7682C155.267 19.4854 156.04 16.817 157.335 14.7436C158.881 12.248 160.991 11.0001 163.644 11.0001C165.358 11.0001 167.3 11.5569 169.473 12.6511C170.351 13.0926 171.228 13.8989 172.106 15.0316C173.255 16.5098 173.986 17.796 174.341 18.8711L175.114 18.4295L173.86 6.91107C173.484 7.21823 173.129 7.54459 172.795 7.85175C172.356 8.12051 171.771 8.25489 171.061 8.25489C170.434 8.25489 169.745 8.1589 168.993 7.98613C167.53 7.65977 166.235 7.4102 165.086 7.27582C163.937 7.12224 162.725 7.06465 161.43 7.06465C159.027 7.06465 156.813 7.39101 154.807 8.04372C152.802 8.69643 151.026 9.75229 149.501 11.1729C148.352 12.2672 147.432 13.4766 146.722 14.8396V31.7526C147.224 32.8276 147.809 33.8451 148.498 34.805C150.378 37.4158 152.655 39.2204 155.371 40.2187C157.544 41.0249 160.469 41.4281 164.125 41.4281H179.397V40.1227C178.916 39.9883 178.54 39.8347 178.289 39.6811C178.039 39.5083 177.809 39.2396 177.6 38.8364C177.391 38.4333 177.266 38.0493 177.224 37.6654C177.224 37.243 177.224 36.8207 177.224 36.3984V26.4349H177.14ZM2.33987 49.0495C2.54878 49.0111 2.79948 48.9919 3.11286 48.9919C5.39005 49.3182 7.62546 49.6638 9.81908 49.9902C12.0127 50.3357 13.9765 50.4893 15.7314 50.4893C17.9251 50.4893 22.2078 50.0477 24.6104 49.1455C27.5352 48.0512 29.6244 46.5154 31.4002 44.5381C33.5729 42.1 34.722 39.182 34.722 35.7648C34.722 33.1732 34.0952 30.6007 32.5283 28.4122C31.8598 27.4715 30.9823 26.7036 30.0004 26.0701C28.2038 24.9183 26.1355 24.1888 24.0672 23.5169C21.7064 22.749 19.3666 21.9619 17.0058 21.1556C15.3554 20.5989 13.6632 20.2917 12.3679 19.0823C10.4876 17.3161 10.989 14.4173 12.723 12.7087C13.5169 11.9216 14.9375 11.3073 16.0448 11.0577C20.1396 10.1746 23.0644 11.9216 26.8249 15.2812C27.7024 16.0683 28.6425 17.8536 28.6425 17.8536L30.7316 7.04545C30.4809 7.17983 29.499 7.79415 29.0603 8.10131C28.2455 8.67724 26.9085 7.92853 26.0937 7.65977C25.0073 7.29502 23.921 6.98786 22.7928 6.73829C20.5365 6.23916 18.2384 6.00879 15.9195 6.00879C14.1019 6.00879 12.1381 6.12397 10.3623 6.50792C9.06698 6.77669 7.68813 7.39101 6.53909 7.98613C2.86216 9.96346 1.06548 13.4574 0.271592 17.2009C-0.208917 19.4854 -0.0835667 21.8467 0.940125 23.9968C2.38165 27.0492 4.97222 29.6601 8.33578 30.9271C8.33578 30.9271 19.8471 34.4594 19.868 34.4594C20.7036 34.709 21.6647 35.4577 22.1661 36.1104C24.0045 38.4333 23.1062 42.292 20.8499 44.1157C17.3192 46.957 10.9681 45.9011 7.47922 43.5014C5.57808 42.1768 4.55438 40.1995 3.73961 38.1837C3.69783 38.0685 2.82038 35.8608 2.88305 35.8608C2.86216 35.8608 1.16993 35.8608 1.16993 35.8608L0 50.4893C0.271592 50.2589 1.35796 49.6254 1.62955 49.4142C1.90114 49.2223 2.15184 49.0879 2.33987 49.0495ZM243.221 36.3216C243.827 37.435 244.829 39.9115 246.229 43.7318C247.274 46.5346 248.13 48.0896 248.799 48.3968C249.3 48.6271 249.906 48.8191 250.637 48.9535V50.4125H230.978V48.8767C231.689 48.7999 232.315 48.5695 232.9 48.1856C233.214 47.9936 233.36 47.5905 233.36 47.0337C233.36 46.2658 233.067 45.1716 232.503 43.7702C232.106 42.8295 231.041 40.6026 229.265 37.1087C228.743 36.1104 228.095 34.9969 227.301 33.8067C226.507 32.5973 225.714 31.4262 224.941 30.236L222.872 31.311V43.4054C222.872 44.3269 222.935 45.0756 223.039 45.6515C223.165 46.2467 223.374 46.7458 223.687 47.1681C224.105 47.7441 224.502 48.128 224.899 48.32C225.087 48.3968 225.526 48.5311 226.257 48.7039V50.3741H207.642V48.7039C208.081 48.7039 208.436 48.6463 208.708 48.512C208.979 48.3776 209.314 48.1472 209.711 47.8016C210.233 47.3409 210.567 46.8226 210.734 46.2083C210.88 45.6131 210.964 44.826 210.964 43.847L211.048 15.7611C211.048 14.878 211.027 14.1869 211.006 13.707C210.901 12.1904 210.692 11.1537 210.4 10.5778C210.107 10.0019 209.752 9.61791 209.376 9.40674C208.979 9.19557 208.52 9.08038 207.977 9.08038V7.4102H235.282C238.332 7.4102 240.651 7.92853 242.239 8.946C243.848 9.98266 244.746 11.4609 244.997 13.3998C245.038 13.9181 245.08 14.2829 245.08 14.5133C245.08 16.625 244.349 18.6215 242.866 20.4645C241.8 21.7699 240.4 22.9985 238.687 24.112C237.392 24.9375 236.64 25.3598 236.431 25.3598C237.81 27.2796 239.022 29.0457 240.045 30.6967C241.027 32.4053 242.093 34.2482 243.221 36.3216ZM232.482 16.6826C232.482 15.2044 231.918 14.0141 230.811 13.1694C229.85 12.4207 228.618 12.056 227.134 12.056C226.111 12.056 225.17 12.248 224.293 12.6511C223.792 12.8815 223.457 13.2654 223.269 13.7838C223.081 14.3213 222.977 14.9356 222.977 15.6459V26.4157L224.335 25.9357C226.319 25.187 228.053 24.112 229.558 22.6722C231.501 20.8292 232.482 18.8327 232.482 16.6826Z" fill="white"/>
<path d="M68.1487 59.205L67.2294 59.5122C66.8743 58.1683 66.2893 56.9205 65.4328 55.807C64.4717 54.54 63.448 53.6185 62.3408 53.0234C61.2335 52.4283 59.9383 52.1211 58.4758 52.1211L58.4967 75.1005C58.4967 75.3693 58.4967 75.5996 58.4967 75.7724C58.4967 76.5595 58.5594 77.2698 58.6639 77.9033C58.7683 78.5368 59.019 79.0936 59.3742 79.5927C59.7293 80.0918 60.1263 80.4182 60.5441 80.591C60.9619 80.7637 61.5051 80.8405 62.1528 80.8405V82.1652H45.4185V80.8789C45.523 80.8597 45.6692 80.8405 45.8364 80.8405C46.6303 80.8405 47.3824 80.4758 48.0927 79.7271C48.5105 79.2855 48.7821 78.8248 48.8657 78.3449C48.9492 77.8649 48.991 77.1546 48.991 76.1947V52.1211C47.7793 52.1211 46.7138 52.3131 45.8573 52.6779C44.9798 53.0426 44.0397 53.6761 43.016 54.5784C42.5146 55.0583 41.9923 55.7303 41.4909 56.6325C40.8851 57.7076 40.4881 58.6291 40.3001 59.397L39.3809 59.1858L41.5745 47.4753C41.8461 47.7441 42.1803 47.9745 42.5773 48.1856C42.7444 48.2624 42.9742 48.3008 43.2667 48.32C43.5592 48.3392 43.7263 48.3584 43.7681 48.3584C44.2904 48.3584 44.5829 48.3584 44.6456 48.3584H62.9675C63.2809 48.3584 63.5525 48.3584 63.7823 48.3392C64.033 48.32 64.3673 48.2432 64.806 48.1089C65.2447 47.9745 65.6626 47.7633 66.0804 47.4753L68.1487 59.205ZM86.3244 51.0845C86.7005 51.1421 86.9721 51.1996 87.1601 51.2572C87.6615 51.4108 88.0166 51.622 88.2047 51.8716C88.4763 52.2555 88.6643 52.697 88.7687 53.1386C88.8732 53.5993 88.9359 54.4056 88.9359 55.5959V58.6099H79.7644V55.4999C79.7644 54.0025 80.0778 52.793 80.7046 51.91C80.9344 51.6028 81.2269 51.3916 81.6238 51.2764C82.0207 51.1613 82.3341 51.1037 82.5848 51.1037V49.8366H67.8144V51.1037C68.2949 51.1613 68.671 51.2764 68.9843 51.4108C69.2977 51.5452 69.5693 51.7948 69.82 52.1595C70.0707 52.5243 70.2169 52.8698 70.2796 53.2154C70.3423 53.5609 70.3632 54.0985 70.3632 54.8088C70.3632 54.9048 70.3632 55.0583 70.3632 55.2695L70.4259 76.6555C70.4259 77.3658 70.3214 78.1337 70.1125 78.9208C69.9036 79.7271 69.6947 80.207 69.5066 80.4182C69.1097 80.7637 68.8381 80.9749 68.6919 81.0517C68.5456 81.1285 68.2531 81.2053 67.8562 81.3013V82.5491H82.5012V81.2821C81.6656 81.2821 80.9762 80.9365 80.4121 80.2646C80.1196 79.8999 79.9525 79.5351 79.8689 79.1895C79.8062 78.844 79.7644 78.3641 79.7644 77.7497V61.9502H88.8732V77.8265C88.8732 78.3449 88.8314 78.8056 88.727 79.2087C88.6434 79.6119 88.4763 79.9766 88.2256 80.303C87.7242 80.9557 87.0347 81.2821 86.1782 81.2821V82.5491H101.053V81.2821C100.28 81.2821 99.6533 81.0517 99.2146 80.5718C98.9848 80.303 98.8176 79.9191 98.7132 79.3815C98.6087 78.844 98.546 78.2681 98.546 77.6346L98.4834 55.4231C98.4834 54.7128 98.5251 54.0793 98.6296 53.5609C98.7341 53.0426 98.9012 52.5627 99.1937 52.1211C99.4862 51.6796 99.8413 51.4108 100.301 51.2764C100.573 51.238 100.844 51.1805 101.137 51.1037V49.8366H86.3662V51.0845H86.3244ZM102.745 51.0845C103.309 51.1805 103.748 51.2764 104.061 51.3916C104.375 51.5068 104.605 51.6988 104.772 51.9292C105.085 52.3707 105.273 52.8506 105.357 53.4074C105.44 53.9449 105.482 54.6936 105.482 55.6343V77.7113C105.482 78.2489 105.44 78.7288 105.336 79.1128C105.252 79.4967 105.064 79.8615 104.793 80.1878C104.249 80.8981 103.56 81.2629 102.745 81.2629V82.5299H117.62V81.2629C117.223 81.2629 116.889 81.1861 116.576 81.0133C116.262 80.8597 116.011 80.6486 115.782 80.4182C115.552 80.1686 115.385 79.7847 115.28 79.2663C115.176 78.748 115.113 78.1529 115.113 77.5194V55.5383C115.113 54.732 115.155 54.0793 115.218 53.5609C115.28 53.0426 115.468 52.5819 115.761 52.1787C115.97 51.8716 116.179 51.6412 116.408 51.5068C116.638 51.3724 117.056 51.238 117.704 51.1037V49.8366H102.766V51.0845H102.745ZM146.868 80.0726C146.68 79.7271 146.555 79.3239 146.492 78.844C146.43 78.3833 146.409 77.9609 146.409 77.6154V55.8646C146.409 55.2503 146.451 54.5784 146.555 53.8489C146.639 53.1194 146.868 52.5051 147.244 52.0059C147.558 51.5836 147.892 51.334 148.247 51.2188C148.498 51.1804 148.728 51.1229 148.978 51.0845V49.8174H139.723V51.0845C140.225 51.1421 140.643 51.2572 140.977 51.43C141.311 51.6028 141.604 51.8524 141.854 52.2171C142.105 52.5819 142.251 52.9082 142.314 53.2154C142.377 53.5225 142.398 53.9641 142.398 54.5592C142.398 54.6552 142.398 54.7704 142.398 54.9432V62.3342L136.235 54.0985C136.026 53.8105 135.879 53.5801 135.796 53.4074C135.608 53.0426 135.524 52.697 135.524 52.3899C135.524 52.1787 135.587 51.9675 135.733 51.7564C135.879 51.5452 136.026 51.3916 136.172 51.2572C136.318 51.1421 136.506 51.0845 136.715 51.0845V49.8174H119.187V51.0845C119.939 51.1997 120.545 51.5068 120.963 52.0059C121.172 52.2363 121.318 52.6779 121.402 53.3114C121.485 53.9449 121.527 54.6168 121.527 55.3079C121.527 55.5959 121.527 55.8646 121.527 56.1334V76.1564C121.527 77.2698 121.443 78.2681 121.255 79.1512C121.067 80.0342 120.775 80.6102 120.336 80.8981C120.085 81.0517 119.897 81.1477 119.751 81.1669C119.605 81.2053 119.333 81.2437 118.957 81.2821V82.5491H127.878V81.2821C127.397 81.1861 127 81.0517 126.708 80.8789C126.416 80.6869 126.165 80.4182 125.998 80.0726C125.831 79.7271 125.705 79.3623 125.643 78.9784C125.58 78.5944 125.538 78.1337 125.538 77.5962L125.559 55.7111L139.64 73.3535C140.455 74.371 140.998 75.1773 141.29 75.7724C141.708 76.6171 141.938 77.5194 141.938 78.4792C141.938 79.9191 141.437 80.8021 140.434 81.1669C140.162 81.2629 139.912 81.3013 139.64 81.3013V82.5683H148.895V81.3013C148.456 81.2629 148.08 81.1285 147.725 80.9173C147.349 80.7061 147.056 80.4182 146.868 80.0726ZM203.276 63.1213L195.922 60.6064C194.627 60.1649 193.687 59.6081 193.081 58.8978C192.6 58.3219 192.35 57.6884 192.35 56.9589C192.35 56.479 192.412 56.0182 192.559 55.5767C192.642 55.3079 192.767 55.0007 192.955 54.6552C193.248 54.0793 193.687 53.6761 194.272 53.3882C194.857 53.1194 195.567 52.985 196.361 52.985C197.28 52.985 198.241 53.1578 199.244 53.5033C200.247 53.8489 201.124 54.3096 201.918 54.8856C202.879 55.5767 203.777 56.7477 204.592 58.3795C204.947 59.0514 205.135 59.5505 205.198 59.8769L206.305 59.5122L205.261 48.8768C205.052 48.9919 204.78 49.1647 204.404 49.3951C203.924 49.6638 203.443 49.8558 202.983 49.9902C202.921 50.0094 202.816 50.0286 202.649 50.0286C201.249 49.7406 199.912 49.4527 198.596 49.1839C197.28 48.896 196.11 48.7616 195.045 48.7616C194.23 48.7616 193.457 48.8384 192.705 48.9919C189.675 49.6447 187.231 50.8541 185.372 52.6203C183.283 54.5976 182.238 57.0165 182.238 59.8769C182.238 61.9502 182.823 63.7164 184.014 65.1754C185.1 66.5 186.604 67.5175 188.547 68.1894L196.632 71.0306C197.364 71.2994 197.949 71.7217 198.387 72.3169C198.826 72.912 199.056 73.6223 199.056 74.4286C199.056 74.7741 199.035 75.0429 198.993 75.2541C198.742 76.5595 198.074 77.577 196.967 78.2873C195.859 78.9976 194.543 79.3623 192.976 79.3623C191.556 79.3623 190.114 79.036 188.631 78.3833C187.148 77.7305 185.873 76.7899 184.787 75.5612C184.035 74.7165 183.366 73.5647 182.802 72.0865C182.342 70.9538 182.092 70.0516 182.029 69.3988L180.922 69.5332L182.113 83.0674C182.342 82.8947 182.572 82.7219 182.802 82.5683C183.032 82.4147 183.241 82.2995 183.408 82.2803C183.575 82.2419 183.805 82.2227 184.076 82.2227C186.019 82.4915 187.921 82.7411 189.78 83.0098C191.639 83.2786 193.311 83.3938 194.815 83.3938C196.674 83.3938 198.617 83.0482 200.664 82.3379C203.151 81.4932 205.156 80.2838 206.681 78.748C208.52 76.8475 209.439 74.5822 209.439 71.9137C209.439 69.6868 208.896 67.8247 207.809 66.3272C206.744 64.8874 205.219 63.8124 203.276 63.1213ZM178.874 79.9766C178.666 79.5735 178.54 79.1895 178.498 78.8056C178.498 78.3833 178.498 77.9609 178.498 77.5386V67.5751C178.498 66.884 178.54 66.3081 178.645 65.8665C178.728 65.425 178.937 65.0026 179.271 64.6379C179.877 63.8892 180.608 63.5052 181.444 63.5052V62.3726H166.82V63.6204C166.924 63.6204 167.092 63.6204 167.3 63.6204C167.885 63.6204 168.429 63.87 168.888 64.3499C169.139 64.6187 169.306 64.8874 169.39 65.1754C169.473 65.4634 169.536 65.9817 169.536 66.7496V74.7357C169.536 76.0412 169.264 77.097 168.742 77.8841C168.115 78.8056 167.133 79.2471 165.817 79.2471C162.851 79.2471 160.448 77.6154 158.61 74.3518C157.043 71.5874 156.27 68.5158 156.27 65.137C156.27 64.8682 156.27 64.6379 156.291 64.4651C156.291 64.2923 156.311 64.1003 156.332 63.8892C156.625 60.6064 157.398 57.938 158.693 55.8454C160.239 53.3498 162.349 52.1019 165.002 52.1019C166.716 52.1019 168.658 52.6587 170.831 53.7529C171.709 54.1945 172.586 55.0007 173.464 56.1334C174.613 57.6116 175.344 58.8978 175.699 59.9729L176.472 59.5313L175.218 48.0129C174.842 48.32 174.487 48.6464 174.153 48.9535C173.714 49.2223 173.129 49.3567 172.419 49.3567C171.792 49.3567 171.103 49.2607 170.351 49.0879C168.888 48.7616 167.593 48.512 166.444 48.3776C165.295 48.224 164.083 48.1664 162.788 48.1664C160.385 48.1664 158.171 48.4928 156.165 49.1455C154.16 49.7982 152.384 50.8541 150.859 52.2747C149.71 53.369 148.79 54.5784 148.08 55.9414V72.8544C148.582 73.9294 149.167 74.9469 149.856 75.9068C151.736 78.5176 154.013 80.3222 156.729 81.3205C158.902 82.1268 161.827 82.5299 165.483 82.5299H180.755V81.2629C180.274 81.1285 179.898 80.9749 179.647 80.8213C179.292 80.6678 179.062 80.3798 178.874 79.9766Z" fill="white"/>
<path d="M36.7693 55.2503H0V58.3027H36.7693V55.2503Z" fill="white"/>
<path d="M250.7 55.2503H207.997V58.3027H250.7V55.2503Z" fill="white"/>
<path d="M245.373 0H0V2.76443H245.373V0Z" fill="white"/>
</g>
<defs>
<clipPath id="clip0">
<rect width="250.7" height="83.4706" fill="white"/>
</clipPath>
</defs>
</svg>
