<svg width="31" height="26" viewBox="0 0 31 26" fill="none" xmlns="http://www.w3.org/2000/svg">
<path d="M30.7209 3.68165C29.6006 4.1824 28.3972 4.52075 27.132 4.67368C28.4374 3.88573 29.4141 2.64558 29.8797 1.18465C28.6532 1.91952 27.3109 2.4368 25.9111 2.71398C24.9697 1.70011 23.7229 1.0281 22.3641 0.802283C21.0054 0.576468 19.6107 0.80948 18.3967 1.46514C17.1827 2.12081 16.2172 3.16244 15.6502 4.42832C15.0832 5.69419 14.9464 7.1135 15.2609 8.46587C12.7757 8.34 10.3446 7.68841 8.12518 6.5534C5.90579 5.41839 3.94779 3.82532 2.37825 1.87758C1.84159 2.81142 1.533 3.89413 1.533 5.04721C1.53241 6.08526 1.78582 7.1074 2.27076 8.02295C2.7557 8.9385 3.45717 9.71915 4.31294 10.2956C3.32047 10.2638 2.34991 9.99328 1.48202 9.50662V9.58782C1.48192 11.0437 1.98116 12.4548 2.89504 13.5817C3.80892 14.7085 5.08113 15.4817 6.49583 15.7701C5.57515 16.0214 4.6099 16.0585 3.67296 15.8784C4.0721 17.1311 4.8496 18.2265 5.89659 19.0114C6.94359 19.7962 8.20768 20.2311 9.51189 20.2552C7.29792 22.0084 4.56368 22.9594 1.74901 22.9552C1.25042 22.9554 0.752257 22.926 0.25708 22.8673C3.11412 24.7203 6.43993 25.7037 9.83657 25.6999C21.3346 25.6999 27.6204 16.0936 27.6204 7.76211C27.6204 7.49143 27.6136 7.21805 27.6016 6.94737C28.8242 6.05545 29.8796 4.95098 30.7183 3.68571L30.7209 3.68165V3.68165Z" fill="#808080"/>
</svg>
