<svg width="27" height="22" viewBox="0 0 27 22" fill="none" xmlns="http://www.w3.org/2000/svg">
<path d="M26.5836 2.75976C25.6094 3.19143 24.5629 3.48309 23.4628 3.61493C24.5979 2.93568 25.4472 1.86664 25.8521 0.60726C24.7856 1.24075 23.6183 1.68665 22.4011 1.92559C21.5825 1.0516 20.4983 0.472308 19.3168 0.277647C18.1353 0.0829859 16.9225 0.28385 15.8669 0.849055C14.8112 1.41426 13.9717 2.31218 13.4786 3.40341C12.9856 4.49465 12.8666 5.71814 13.1401 6.88393C10.9791 6.77542 8.865 6.21374 6.93509 5.23532C5.00519 4.2569 3.30258 2.88362 1.93776 1.20459C1.4711 2.00959 1.20276 2.94293 1.20276 3.93693C1.20224 4.83176 1.4226 5.71288 1.84429 6.50212C2.26597 7.29135 2.87595 7.96431 3.6201 8.46126C2.75708 8.4338 1.91311 8.20061 1.15843 7.78109V7.85109C1.15834 9.10612 1.59247 10.3225 2.38714 11.2939C3.18182 12.2653 4.2881 12.9318 5.51826 13.1804C4.71768 13.3971 3.87832 13.429 3.0636 13.2738C3.41068 14.3536 4.08676 15.298 4.99719 15.9745C5.90763 16.6511 7.00683 17.026 8.14093 17.0468C6.21574 18.5581 3.83813 19.3779 1.3906 19.3743C0.95704 19.3744 0.523851 19.3491 0.0932617 19.2984C2.57765 20.8958 5.46966 21.7436 8.42326 21.7403C18.4216 21.7403 23.8874 13.4593 23.8874 6.27726C23.8874 6.04393 23.8816 5.80826 23.8711 5.57493C24.9343 4.80606 25.852 3.85397 26.5813 2.76326L26.5836 2.75976Z" fill="#808080"/>
</svg>
