<svg width="29" height="21" viewBox="0 0 29 21" fill="none" xmlns="http://www.w3.org/2000/svg">
<path d="M14.5924 0.623291H14.7538C16.2436 0.628729 23.7927 0.683104 25.8281 1.23048C26.4435 1.39753 27.0042 1.72316 27.4542 2.17481C27.9043 2.62646 28.2279 3.18831 28.3928 3.80423C28.5759 4.49298 28.7046 5.40467 28.7916 6.34535L28.8097 6.53385L28.8496 7.0051L28.8641 7.1936C28.9819 8.85023 28.9964 10.4017 28.9982 10.7407V10.8766C28.9964 11.2282 28.9801 12.8849 28.8496 14.6104L28.8351 14.8007L28.8188 14.9892C28.7281 16.0259 28.594 17.0554 28.3928 17.813C28.2284 18.4292 27.905 18.9913 27.4548 19.4431C27.0047 19.8948 26.4437 20.2202 25.8281 20.3868C23.7256 20.9523 15.7343 20.9922 14.6269 20.994H14.3695C13.8094 20.994 11.4931 20.9831 9.06431 20.8997L8.75619 20.8889L8.5985 20.8816L8.28856 20.8689L7.97863 20.8562C5.96675 20.7674 4.05094 20.6242 3.16825 20.385C2.55289 20.2186 1.99206 19.8934 1.54194 19.442C1.09182 18.9906 0.768222 18.4289 0.603563 17.813C0.402375 17.0572 0.26825 16.0259 0.177625 14.9892L0.163125 14.7989L0.148625 14.6104C0.0591738 13.3822 0.00960601 12.1515 0 10.9201L0 10.699C0.003625 10.3093 0.018125 8.9626 0.116 7.47635L0.128688 7.28967L0.134125 7.19542L0.148625 7.00692L0.1885 6.53567L0.206625 6.34717C0.293625 5.40648 0.422312 4.49298 0.605375 3.80604C0.769757 3.18988 1.09323 2.62775 1.54337 2.17603C1.9935 1.7243 2.55448 1.39885 3.17006 1.23229C4.05275 0.996666 5.96856 0.851666 7.98044 0.761041L8.28856 0.748354L8.60031 0.737479L8.75619 0.732041L9.06612 0.719354C10.7911 0.663241 12.5168 0.631821 14.2426 0.625104H14.5924V0.623291ZM11.6 6.44142V15.174L19.1346 10.8095L11.6 6.44142Z" fill="#808080"/>
</svg>
