<svg width="34" height="34" viewBox="0 0 34 34" fill="none" xmlns="http://www.w3.org/2000/svg">
<g clip-path="url(#clip0)">
<path d="M16.7813 4.20294H16.9668C18.6802 4.20925 27.3616 4.27232 29.7024 4.90728C30.41 5.10106 31.0548 5.47879 31.5724 6.0027C32.09 6.52661 32.4622 7.17837 32.6518 7.89283C32.8623 8.69178 33.0103 9.74934 33.1103 10.8405L33.1312 11.0592L33.177 11.6058L33.1937 11.8245C33.3292 13.7462 33.3459 15.5459 33.348 15.9391V16.0968C33.3459 16.5047 33.3271 18.4264 33.177 20.4279L33.1604 20.6487L33.1416 20.8674C33.0374 22.07 32.8831 23.2642 32.6518 24.1431C32.4627 24.8578 32.0907 25.5099 31.5731 26.0339C31.0554 26.5579 30.4103 26.9354 29.7024 27.1286C27.2845 27.7846 18.0945 27.8308 16.8209 27.8329H16.5249C15.8809 27.8329 13.217 27.8203 10.424 27.7236L10.0696 27.711L9.88829 27.7026L9.53186 27.6879L9.17543 27.6731C6.86177 27.5701 4.65858 27.404 3.64349 27.1265C2.93582 26.9335 2.29087 26.5563 1.77323 26.0327C1.25559 25.509 0.883457 24.8574 0.694098 24.1431C0.462732 23.2663 0.308488 22.07 0.204269 20.8674L0.187594 20.6466L0.170919 20.4279C0.0680499 19.0033 0.0110469 17.5756 0 16.1472L0 15.8907C0.00416876 15.4387 0.0208438 13.8765 0.1334 12.1525L0.147991 11.9359L0.154244 11.8266L0.170919 11.6079L0.216775 11.0613L0.237619 10.8426C0.337669 9.75144 0.48566 8.69178 0.696182 7.89493C0.885222 7.18018 1.25722 6.52812 1.77487 6.00412C2.29253 5.48011 2.93766 5.10259 3.64558 4.90938C4.66067 4.63606 6.86385 4.46786 9.17751 4.36273L9.53186 4.34801L9.89037 4.3354L10.0696 4.32909L10.4261 4.31437C12.4098 4.24928 14.3943 4.21284 16.379 4.20504H16.7813V4.20294ZM13.34 10.952V21.0818L22.0048 16.019L13.34 10.952Z" fill="#808080"/>
</g>
<defs>
<clipPath id="clip0">
<rect width="33.35" height="33.64" fill="white"/>
</clipPath>
</defs>
</svg>
