<svg width="57" height="57" viewBox="0 0 57 57" fill="none" xmlns="http://www.w3.org/2000/svg">
<g clip-path="url(#clip0)">
<path fill-rule="evenodd" clip-rule="evenodd" d="M0.8125 28.7736C0.8125 42.8104 10.9208 54.4827 24.1413 56.8496V36.4579H17.1426V28.616H24.1413V22.341C24.1413 15.2826 28.6507 11.3629 35.0288 11.3629C37.0491 11.3629 39.228 11.6758 41.2482 11.9887V19.2048H37.6719C34.2496 19.2048 33.4728 20.9294 33.4728 23.1269V28.616H40.938L39.6945 36.4579H33.4728V56.8496C46.6932 54.4827 56.8015 42.8128 56.8015 28.7736C56.8015 13.158 44.204 0.382324 28.807 0.382324C13.41 0.382324 0.8125 13.158 0.8125 28.7736Z" fill="#808080"/>
</g>
<defs>
<clipPath id="clip0">
<rect width="55.989" height="56.4673" fill="white" transform="translate(0.8125 0.382324)"/>
</clipPath>
</defs>
</svg>
