<svg width="47" height="47" viewBox="0 0 47 47" fill="none" xmlns="http://www.w3.org/2000/svg">
<path fill-rule="evenodd" clip-rule="evenodd" d="M7.31787 7.31662C7.31787 8.96335 7.86231 10.4833 8.78144 11.7066H5.36644C4.46073 11.7066 3.59211 12.0663 2.95168 12.7067C2.31124 13.347 1.95145 14.2155 1.95145 15.121V19.9988C1.95145 21.3606 2.74958 22.5352 3.90287 23.0854V39.5098C3.90287 41.3945 5.43279 42.9242 7.31787 42.9242H39.5164C40.4221 42.9242 41.2907 42.5645 41.9312 41.9241C42.5716 41.2838 42.9314 40.4153 42.9314 39.5098V23.0854C44.0847 22.5372 44.8828 21.3606 44.8828 19.9988V15.121C44.8828 14.2155 44.523 13.347 43.8826 12.7067C43.2421 12.0663 42.3735 11.7066 41.4678 11.7066H38.0528C38.8682 10.6196 39.3648 9.32699 39.4868 7.9737C39.6089 6.6204 39.3516 5.25986 38.7438 4.04453C38.1361 2.8292 37.2018 1.80709 36.0458 1.09273C34.8897 0.378377 33.5576 0 32.1985 0C29.3573 0 25.4934 1.75794 23.4171 6.06792C21.3408 1.75794 17.475 0 14.6357 0C12.6949 0 10.8336 0.770856 9.46121 2.14299C8.08885 3.51512 7.31787 5.37613 7.31787 7.31662V7.31662ZM21.895 11.7066C21.335 4.89141 16.8799 2.92665 14.6357 2.92665C13.4712 2.92665 12.3544 3.38916 11.531 4.21244C10.7076 5.03572 10.245 6.15233 10.245 7.31662C10.245 8.48092 10.7076 9.59752 11.531 10.4208C12.3544 11.2441 13.4712 11.7066 14.6357 11.7066H21.895ZM40.0042 23.4132V39.5098C40.0042 39.6391 39.9528 39.7632 39.8614 39.8547C39.7699 39.9462 39.6458 39.9975 39.5164 39.9975H24.8807V23.4132H40.0042ZM21.9536 39.9975V23.4132H6.83001V39.5098C6.83001 39.779 7.04857 39.9975 7.31787 39.9975H21.9536ZM41.4678 20.4865C41.5972 20.4865 41.7213 20.4352 41.8128 20.3437C41.9043 20.2522 41.9557 20.1281 41.9557 19.9988V15.121C41.9557 14.9917 41.9043 14.8676 41.8128 14.7761C41.7213 14.6846 41.5972 14.6332 41.4678 14.6332H24.8807V20.4865H41.4678ZM5.36644 20.4865H21.9536V14.6332H5.36644C5.23705 14.6332 5.11297 14.6846 5.02147 14.7761C4.92998 14.8676 4.87859 14.9917 4.87859 15.121V19.9988C4.87859 20.268 5.09714 20.4865 5.36644 20.4865ZM36.5893 7.31662C36.5893 8.48092 36.1267 9.59752 35.3032 10.4208C34.4798 11.2441 33.363 11.7066 32.1985 11.7066H24.9392C25.4993 4.89141 29.9544 2.92665 32.1985 2.92665C33.363 2.92665 34.4798 3.38916 35.3032 4.21244C36.1267 5.03572 36.5893 6.15233 36.5893 7.31662V7.31662Z" fill="white"/>
</svg>
