<svg width="40" height="40" viewBox="0 0 40 40" fill="none" xmlns="http://www.w3.org/2000/svg">
<path d="M20.9387 13.8533H17.6835V10.5984H20.9387V13.8533ZM20.9387 17.1081H17.6835V26.8726H20.9387V17.1081ZM19.3111 5.71617C12.1334 5.71617 6.29028 11.5586 6.29028 18.7355C6.29028 25.9124 12.1334 31.7549 19.3111 31.7549C26.4888 31.7549 32.3319 25.9124 32.3319 18.7355C32.3319 11.5586 26.4888 5.71617 19.3111 5.71617ZM19.3111 2.46133C28.3004 2.46133 35.5872 9.74728 35.5872 18.7355C35.5872 27.7237 28.3004 35.0097 19.3111 35.0097C10.3219 35.0097 3.03507 27.7237 3.03507 18.7355C3.03507 9.74728 10.3219 2.46133 19.3111 2.46133Z" fill="white"/>
</svg>
