<svg width="59" height="57" viewBox="0 0 59 57" fill="none" xmlns="http://www.w3.org/2000/svg">
<path fill-rule="evenodd" clip-rule="evenodd" d="M18.1114 2.50804C20.9573 2.38099 21.8647 2.35275 29.1141 2.35275C36.3636 2.35275 37.2709 2.38334 40.1144 2.50804C42.9579 2.63274 44.8988 3.07271 46.5972 3.71032C48.3756 4.36204 49.989 5.3808 51.3234 6.69837C52.682 7.99006 53.7301 9.55231 54.3997 11.2793C55.0597 12.9262 55.5109 14.8085 55.6419 17.5612C55.773 20.3258 55.8021 21.2057 55.8021 28.2335C55.8021 35.2637 55.7705 36.1436 55.6419 38.9035C55.5134 41.6562 55.0597 43.5385 54.3997 45.1854C53.7301 46.9126 52.6803 48.4775 51.3234 49.771C49.989 51.0886 48.3756 52.105 46.5972 52.7544C44.8988 53.3944 42.9579 53.832 40.1193 53.959C37.2709 54.0861 36.3636 54.1143 29.1141 54.1143C21.8647 54.1143 20.9573 54.0837 18.1114 53.959C15.2728 53.8343 13.3319 53.3944 11.6335 52.7544C9.85254 52.1049 8.23889 51.0869 6.90493 49.771C5.54719 48.4786 4.4965 46.9145 3.82611 45.1878C3.16862 43.5408 2.71735 41.6586 2.58634 38.9058C2.45532 36.1413 2.42621 35.2613 2.42621 28.2335C2.42621 21.2034 2.45775 20.3234 2.58634 17.5659C2.71492 14.8085 3.16862 12.9262 3.82611 11.2793C4.49749 9.55251 5.54898 7.98844 6.90735 6.69602C8.23942 5.37963 9.85145 4.36073 11.6311 3.71032C13.3294 3.07271 15.2704 2.63509 18.109 2.50804H18.1114ZM39.8985 7.16658C37.0841 7.04188 36.2398 7.016 29.1141 7.016C21.9885 7.016 21.1442 7.04188 18.3298 7.16658C15.7265 7.28186 14.3145 7.70302 13.3731 8.05829C12.1285 8.52885 11.2381 9.08646 10.304 9.99229C9.41856 10.8277 8.73713 11.8446 8.30968 12.9686C7.94333 13.8815 7.50905 15.2508 7.39016 17.7753C7.26158 20.5046 7.23489 21.3234 7.23489 28.2335C7.23489 35.1437 7.26158 35.9625 7.39016 38.6917C7.50905 41.2163 7.94333 42.5856 8.30968 43.4985C8.73669 44.6208 9.41845 45.6395 10.304 46.4748C11.1653 47.3335 12.2158 47.9947 13.3731 48.4088C14.3145 48.764 15.7265 49.1852 18.3298 49.3005C21.1442 49.4252 21.986 49.4511 29.1141 49.4511C36.2422 49.4511 37.0841 49.4252 39.8985 49.3005C42.5018 49.1852 43.9138 48.764 44.8552 48.4088C46.0998 47.9382 46.9902 47.3806 47.9243 46.4748C48.8098 45.6395 49.4916 44.6208 49.9186 43.4985C50.285 42.5856 50.7192 41.2163 50.8381 38.6917C50.9667 35.9625 50.9934 35.1437 50.9934 28.2335C50.9934 21.3234 50.9667 20.5046 50.8381 17.7753C50.7192 15.2508 50.285 13.8815 49.9186 12.9686C49.4334 11.7616 48.8584 10.8981 47.9243 9.99229C47.0628 9.13368 46.0142 8.47288 44.8552 8.05829C43.9138 7.70302 42.5018 7.28186 39.8985 7.16658V7.16658ZM25.7054 36.2119C27.6091 36.9804 29.7289 37.0841 31.7027 36.5053C33.6765 35.9265 35.3819 34.7012 36.5276 33.0385C37.6733 31.3759 38.1882 29.379 37.9844 27.3891C37.7805 25.3992 36.8706 23.5396 35.4101 22.128C34.479 21.2257 33.3532 20.5347 32.1137 20.105C30.8742 19.6752 29.5519 19.5173 28.2419 19.6426C26.9319 19.7679 25.6669 20.1733 24.5379 20.8296C23.4089 21.4859 22.444 22.3768 21.7126 23.4382C20.9813 24.4995 20.5017 25.705 20.3084 26.9676C20.1151 28.2303 20.2129 29.5188 20.5947 30.7405C20.9766 31.9621 21.633 33.0864 22.5167 34.0325C23.4004 34.9786 24.4894 35.7229 25.7054 36.2119ZM19.4143 18.827C20.6881 17.5918 22.2003 16.6119 23.8646 15.9434C25.5289 15.2748 27.3127 14.9307 29.1141 14.9307C30.9156 14.9307 32.6994 15.2748 34.3637 15.9434C36.028 16.6119 37.5402 17.5918 38.814 18.827C40.0878 20.0623 41.0982 21.5288 41.7876 23.1428C42.477 24.7567 42.8318 26.4866 42.8318 28.2335C42.8318 29.9805 42.477 31.7103 41.7876 33.3243C41.0982 34.9383 40.0878 36.4047 38.814 37.64C36.2414 40.1348 32.7523 41.5363 29.1141 41.5363C25.476 41.5363 21.9869 40.1348 19.4143 37.64C16.8417 35.1453 15.3965 31.7616 15.3965 28.2335C15.3965 24.7054 16.8417 21.3218 19.4143 18.827V18.827ZM45.8742 16.9119C46.1898 16.6231 46.4425 16.2759 46.6173 15.8907C46.7921 15.5055 46.8854 15.0903 46.8917 14.6695C46.8981 14.2487 46.8173 13.831 46.6541 13.441C46.491 13.0511 46.2488 12.6969 45.942 12.3993C45.6352 12.1017 45.2699 11.8669 44.8678 11.7087C44.4657 11.5505 44.0349 11.4721 43.601 11.4783C43.1671 11.4844 42.7389 11.5749 42.3417 11.7444C41.9445 11.9139 41.5865 12.159 41.2887 12.4651C40.7096 13.0604 40.3925 13.8512 40.4048 14.6695C40.4171 15.4878 40.7578 16.2693 41.3546 16.848C41.9513 17.4267 42.7572 17.7571 43.601 17.769C44.4449 17.7809 45.2603 17.4735 45.8742 16.9119V16.9119Z" fill="#808080"/>
</svg>
