<svg width="224" height="61" viewBox="0 0 224 61" fill="none" xmlns="http://www.w3.org/2000/svg">
<g clip-path="url(#clip0)">
<path d="M148.827 0.741451V44.2628C154.208 44.5126 159.576 44.8144 164.928 45.1706V54.3979C156.439 53.8333 147.941 53.4048 139.438 53.1128V0.741451H148.827V0.741451ZM223.432 0.746663L211.207 29.0191L223.429 60.4812L223.415 60.4868C219.852 59.9811 216.285 59.5 212.715 59.0436L205.851 41.3854L198.922 57.4044C195.638 57.0426 192.351 56.7008 189.055 56.3794L200.973 28.8297L190.058 0.747098H200.214L206.325 16.463L213.12 0.746663H223.432ZM107.217 52.6554V0.746229H133.424V10.0566H116.605V22.1223H129.331V31.3497H116.605V52.6537L107.217 52.6554V52.6554ZM72.16 10.057V0.745795H101.198V10.0566H91.3727V52.9078C88.239 52.9903 85.1088 53.0867 81.9851 53.2044V10.057H72.16ZM40.0647 55.8868V0.747532H66.1417V10.0574H49.4518V22.6687C53.2861 22.6196 58.7379 22.5645 62.1298 22.5723V31.8005C57.8841 31.7484 53.0914 31.8587 49.4518 31.8948V45.8646C55.011 45.4276 60.5746 45.0483 66.1417 44.7267V53.9549C57.4393 54.4557 48.7458 55.1001 40.0647 55.8877V55.8868ZM21.648 34.5559L21.6475 0.745795H31.0359V56.7572C27.604 57.109 24.1782 57.4839 20.7589 57.8795L9.88698 26.7249V59.2138C6.75156 59.6212 3.62223 60.0456 0.499001 60.489V0.746663H9.42108L21.6475 34.5559H21.648ZM172.673 54.9543V0.746663H182.062V55.7279C178.936 55.4499 175.808 55.1936 172.673 54.9548V54.9543Z" fill="#DB202C"/>
</g>
<defs>
<clipPath id="clip0">
<rect width="222.933" height="59.9378" fill="white" transform="translate(0.5 0.741451)"/>
</clipPath>
</defs>
</svg>
