<svg width="44" height="44" viewBox="0 0 44 44" fill="none" xmlns="http://www.w3.org/2000/svg">
<path d="M21.544 41.022C22.298 41.0046 23.0215 40.7212 23.5867 40.2219C24.1518 39.7226 24.5221 39.0395 24.632 38.2936H18.3364C18.4494 39.0598 18.8371 39.7589 19.4271 40.2608C20.0171 40.7627 20.7694 41.0332 21.544 41.022V41.022Z" fill="white"/>
<path d="M39.3179 33.6624L38.911 33.3034C37.7565 32.275 36.746 31.0956 35.9068 29.7972C34.9902 28.0052 34.4409 26.0483 34.291 24.0412V18.1296C34.2861 17.4115 34.2221 16.6951 34.0995 15.9876C32.0721 15.5709 30.251 14.4666 28.9444 12.8616C27.6379 11.2566 26.9263 9.24945 26.9301 7.18004V6.42614C25.6804 5.81127 24.3378 5.40694 22.9564 5.22946V3.72166C22.9564 3.29796 22.788 2.89161 22.4884 2.59201C22.1887 2.29241 21.7823 2.1241 21.3585 2.1241C20.9348 2.1241 20.5283 2.29241 20.2287 2.59201C19.929 2.89161 19.7607 3.29796 19.7607 3.72166V5.2893C16.6676 5.72555 13.8368 7.2659 11.7908 9.62597C9.74493 11.986 8.62208 15.0065 8.62959 18.1296V24.0412C8.47968 26.0483 7.93033 28.0052 7.01378 29.7972C6.18898 31.0924 5.19474 32.2716 4.05746 33.3034L3.65051 33.6624V37.0371H39.3179V33.6624Z" fill="white"/>
<path d="M35.9068 13.1634C39.2119 13.1634 41.8913 10.4846 41.8913 7.18005C41.8913 3.87552 39.2119 1.19667 35.9068 1.19667C32.6017 1.19667 29.9223 3.87552 29.9223 7.18005C29.9223 10.4846 32.6017 13.1634 35.9068 13.1634Z" fill="#DB202C"/>
</svg>
