<svg width="32" height="36" viewBox="0 0 32 36" fill="none" xmlns="http://www.w3.org/2000/svg">
<path d="M2.63752 31.5344C2.37692 31.5344 2.12699 31.4172 1.94271 31.2084C1.75843 30.9997 1.65491 30.7166 1.65491 30.4213V5.93348C1.65494 5.74006 1.69946 5.54999 1.78409 5.38199C1.86872 5.214 1.99053 5.07389 2.13752 4.97547C2.28451 4.87704 2.45161 4.82371 2.62234 4.82072C2.79307 4.81773 2.96154 4.86519 3.11115 4.95842L22.7635 17.2024C22.9176 17.2984 23.046 17.4396 23.1355 17.6111C23.225 17.7826 23.2722 17.9782 23.2722 18.1774C23.2722 18.3766 23.225 18.5722 23.1355 18.7437C23.046 18.9152 22.9176 19.0564 22.7635 19.1525L3.11115 31.3964C2.96606 31.4869 2.80314 31.5344 2.63752 31.5344Z" fill="black"/>
</svg>
