<svg width="40" height="39" viewBox="0 0 40 39" fill="none" xmlns="http://www.w3.org/2000/svg">
<path d="M38.6947 34.4226L31.266 27.2591C33.6628 24.306 34.9633 20.6592 34.9585 16.9049C34.9585 13.5614 33.9334 10.293 32.0127 7.51304C30.0921 4.73305 27.3622 2.5663 24.1683 1.28681C20.9744 0.00732456 17.4599 -0.327448 14.0692 0.32483C10.6786 0.977108 7.56408 2.58714 5.11956 4.95133C2.67505 7.31552 1.01031 10.3277 0.335867 13.6069C-0.338574 16.8861 0.00757343 20.2851 1.33054 23.3741C2.6535 26.4631 4.89386 29.1032 7.76831 30.9608C10.6428 32.8183 14.0222 33.8098 17.4793 33.8098C21.3611 33.8144 25.1318 32.5567 28.1853 30.2386L35.5921 37.4232C35.7953 37.6212 36.0369 37.7784 36.3032 37.8857C36.5694 37.993 36.855 38.0482 37.1434 38.0482C37.4319 38.0482 37.7174 37.993 37.9837 37.8857C38.2499 37.7784 38.4916 37.6212 38.6947 37.4232C38.8995 37.2267 39.062 36.993 39.173 36.7355C39.2839 36.478 39.341 36.2018 39.341 35.9229C39.341 35.6439 39.2839 35.3677 39.173 35.1102C39.062 34.8527 38.8995 34.619 38.6947 34.4226V34.4226ZM4.36982 16.9049C4.36982 14.3973 5.13868 11.946 6.57916 9.861C8.01964 7.77601 10.0671 6.15095 12.4625 5.19133C14.8579 4.23171 17.4938 3.98063 20.0368 4.46984C22.5798 4.95905 24.9157 6.16658 26.749 7.93972C28.5824 9.71286 29.831 11.972 30.3368 14.4314C30.8426 16.8908 30.583 19.4401 29.5908 21.7568C28.5986 24.0735 26.9183 26.0537 24.7625 27.4468C22.6066 28.84 20.0721 29.5835 17.4793 29.5835C14.0024 29.5835 10.668 28.2478 8.20949 25.87C5.75099 23.4923 4.36982 20.2675 4.36982 16.9049Z" fill="white"/>
</svg>
