<svg width="509" height="184" viewBox="0 0 509 184" fill="none" xmlns="http://www.w3.org/2000/svg">
<g clip-path="url(#clip0)">
<path d="M107.214 27.507C104.97 26.1971 102.345 25.5633 99.3808 25.5633L99.4232 75.7604C99.4232 76.3519 99.4232 76.859 99.4232 77.2393C99.4232 78.9716 99.5502 80.4928 99.7619 81.8871C99.9737 83.2815 100.482 84.5068 101.202 85.5632C101.921 86.6618 102.726 87.3801 103.573 87.7181C104.42 88.0984 105.521 88.2674 106.833 88.2674V91.1406H72.916V88.3097C73.1277 88.2674 73.4241 88.2251 73.7629 88.2251C75.3719 88.2251 76.8963 87.4223 78.336 85.8167C79.1829 84.8449 79.7333 83.8308 79.9027 82.8167C80.0721 81.8026 80.1568 80.2392 80.1568 78.1266V25.5211C77.7008 25.5211 75.5413 25.9436 73.8052 26.7464C72.0268 27.5492 70.1213 28.9436 68.0464 30.9295C67.0302 31.9436 65.9716 33.4647 64.9553 35.4084C63.7274 37.7746 62.9228 39.7605 62.5418 41.4506L60.6786 40.9858L65.1247 15.4225C65.6752 16.014 66.3527 16.5211 67.1572 16.9859C67.496 17.1126 67.9618 17.2394 68.5546 17.2816C69.1474 17.3239 69.4861 17.3662 69.5708 17.3662C70.6294 17.3662 71.2222 17.3662 71.3493 17.3662H108.485C109.12 17.3662 109.67 17.3662 110.136 17.3239C110.644 17.2816 111.322 17.1126 112.211 16.8169C113.1 16.5211 113.947 16.0563 114.794 15.4225L118.944 40.9858L117.081 41.6619C116.361 38.7041 115.175 35.9999 113.439 33.5492C111.533 30.8027 109.459 28.8168 107.214 27.507ZM244.747 91.0984H239.412H212.735V88.2251C213.794 87.9716 214.598 87.6758 215.149 87.3378C216.8 86.1547 217.605 84.2533 217.605 81.5914C217.605 80.704 217.562 80.028 217.478 79.5209C217.181 77.2393 215.953 74.6618 213.836 71.7886C211.507 68.7041 208.924 66.3801 206.087 64.859C204.986 64.2675 203.335 63.7604 201.175 63.2956C199.016 62.8308 197.237 62.5773 195.798 62.5773L191.436 77.535C190.886 79.3097 190.632 81.2533 190.632 83.366C190.632 84.3801 190.716 85.0984 190.928 85.5209C191.436 86.4082 191.987 87.042 192.579 87.4646C193.215 87.8871 193.892 88.1829 194.697 88.3097V91.0561H185.423H174.16H154.258V88.3942C155.359 88.2251 156.376 87.8449 157.307 87.2111C157.815 86.873 158.069 86.197 158.069 85.2251C158.069 83.9153 157.604 82.0139 156.714 79.6054C156.079 77.9998 154.385 74.197 151.591 68.197C150.786 66.4646 149.728 64.6055 148.457 62.5351C147.187 60.4646 145.959 58.4365 144.731 56.4083L141.471 58.2675V79.0562C141.471 80.6195 141.555 81.9294 141.767 82.9435C141.936 83.9575 142.275 84.8026 142.783 85.5632C143.461 86.535 144.096 87.2111 144.689 87.5491C144.985 87.6758 145.705 87.9294 146.848 88.2251V91.0984H117.335V88.2251C118.054 88.2251 118.605 88.0984 119.028 87.8871C119.452 87.6758 120.002 87.2533 120.595 86.6618C121.4 85.859 121.95 84.9716 122.204 83.9575C122.458 82.9435 122.585 81.5914 122.585 79.9012L122.712 31.6901C122.712 30.1689 122.712 28.9858 122.67 28.1408C122.501 25.5211 122.204 23.7464 121.696 22.7746C121.23 21.8028 120.68 21.1267 120.045 20.7464C119.409 20.3661 118.69 20.1971 117.8 20.1971V17.3239H161.118C165.945 17.3239 169.629 18.2112 172.17 19.9859C174.71 21.7605 176.15 24.2957 176.531 27.6337C176.616 28.5211 176.658 29.1549 176.658 29.5351C176.658 33.1689 175.473 36.5915 173.144 39.7605C171.45 41.9999 169.248 44.1126 166.538 46.014C164.463 47.4506 163.278 48.1266 162.939 48.1266C165.141 51.4224 167.046 54.4647 168.655 57.2956C170.264 60.1266 172 63.2956 173.779 66.8449C174.71 68.7463 176.319 73.0139 178.564 79.5632C179.072 81.0421 179.538 82.2674 180.003 83.3237C180.173 83.1125 180.3 82.9012 180.427 82.6899C180.977 81.7604 181.485 80.535 181.994 78.8871L199.143 26.4929C199.354 25.9013 199.524 25.3098 199.693 24.7182C199.863 24.1267 199.947 23.5774 199.947 23.1126C199.947 22.4366 199.82 21.845 199.524 21.3802C199.27 20.9154 198.973 20.6197 198.719 20.4507C198.465 20.3239 198.169 20.1971 197.872 20.0704V17.2816H225.269V20.5352C224.295 20.5352 223.617 20.9577 223.236 21.8028C223.067 22.183 222.982 22.6056 222.982 22.9859C222.982 23.3661 223.025 23.8309 223.152 24.2957C223.194 24.3802 223.321 24.8873 223.575 25.7746L239.666 83.2392C239.962 83.8308 240.174 84.2956 240.343 84.6336C240.894 85.6477 241.402 86.4082 241.91 86.7885C242.079 86.9575 242.249 87.042 242.418 87.1688C243.223 86.4928 243.815 85.2251 244.154 83.3237C244.535 81.3378 244.705 79.0984 244.705 76.6055V31.5633C244.705 30.9718 244.705 30.3802 244.705 29.7042C244.705 28.1408 244.62 26.6197 244.451 25.2253C244.281 23.7887 243.985 22.8168 243.604 22.2675C242.757 21.1267 241.529 20.4507 240.005 20.1971V17.3239H275.404V20.1971C274.98 20.1971 274.642 20.3239 274.303 20.6197C274.007 20.8732 273.71 21.2535 273.414 21.7183C273.117 22.183 272.99 22.6478 272.99 23.1549C272.99 23.8309 273.16 24.5915 273.541 25.4366C273.71 25.8168 274.007 26.3661 274.388 26.9999L286.837 45.5492V28.9436C286.837 28.5633 286.837 28.2675 286.837 28.0563C286.837 26.7464 286.794 25.7323 286.667 25.014C286.54 24.338 286.244 23.5774 285.736 22.7746C285.228 21.9718 284.635 21.3802 283.957 20.9999C283.28 20.6197 282.433 20.3661 281.417 20.2394V17.3662H300.09V20.2394C299.582 20.3239 299.116 20.4507 298.608 20.5352C297.846 20.7887 297.169 21.3802 296.576 22.3098C295.814 23.4506 295.39 24.845 295.178 26.4506C295.009 28.0985 294.882 29.6196 294.882 30.9718V79.9857C294.882 80.7885 294.924 81.6759 295.051 82.7322C295.178 83.7885 295.433 84.7181 295.814 85.4787C296.195 86.2815 296.745 86.873 297.465 87.3378C298.185 87.8026 298.989 88.0984 299.836 88.1829V91.0561H281.163V88.1829C281.713 88.1829 282.221 88.0984 282.772 87.8871C284.804 87.0843 285.82 85.0984 285.82 81.8449C285.82 79.69 285.397 77.6618 284.508 75.7181C283.915 74.4083 282.814 72.5914 281.163 70.2674L252.75 30.5492L252.708 79.859C252.708 81.0843 252.792 82.1406 252.919 82.9857C253.046 83.8308 253.3 84.6759 253.639 85.4364C253.978 86.2392 254.444 86.8308 255.079 87.2533C255.672 87.6758 256.476 87.9716 257.45 88.1829V91.0561H244.747V91.0984ZM156.672 33.2112C156.672 30.676 155.783 28.6478 154.004 27.1689C152.48 25.9013 150.532 25.2675 148.203 25.2675C146.594 25.2675 145.07 25.6056 143.672 26.2816C142.868 26.6619 142.36 27.338 142.021 28.2253C141.725 29.1549 141.555 30.2112 141.555 31.4365V49.9435L143.715 49.1407C146.848 47.8731 149.601 46.014 152.014 43.521C155.105 40.3098 156.672 36.8872 156.672 33.2112ZM211.761 58.6477L204.859 32.5351L198.931 53.2393C199.439 53.2393 200.032 53.2816 200.794 53.3238C201.514 53.3661 202.615 53.6618 204.055 54.1266C205.494 54.6337 207.061 55.3942 208.755 56.4083C209.983 57.2111 210.999 57.9294 211.761 58.6477ZM412.555 91.2674C413.402 91.3519 414.207 91.5209 414.927 91.7744L417.044 92.4927L425.089 64.2675L422.972 62.9999C422.252 66.2534 420.601 69.5914 418.018 73.0984C415.689 76.2252 413.275 78.6759 410.777 80.4083C409.083 81.5491 407.22 82.4364 405.188 83.1547C403.155 83.8308 401.165 84.1688 399.217 84.1688C397.439 84.1688 395.872 83.873 394.517 83.2392C393.162 82.6054 392.103 81.7181 391.341 80.4928C390.579 79.2674 390.113 78.0843 389.901 76.9435C389.69 75.8026 389.605 74.4505 389.605 72.8026C389.605 72.5069 389.605 72.1266 389.605 71.6195C389.605 71.1125 389.605 70.521 389.605 69.8449V48.7604H397.523C398.413 48.7604 399.556 49.0985 400.869 49.7745C402.181 50.4506 403.367 51.2957 404.383 52.3942C405.399 53.4928 406.331 54.9294 407.178 56.8308C407.855 58.352 408.236 59.6196 408.406 60.5914L410.777 60.1689L406.627 32.1126L404.764 32.7887C404.764 33.0422 404.764 33.4225 404.764 33.8872C404.764 35.9999 404.044 37.7746 402.689 39.2534C402.012 39.9295 401.25 40.4365 400.487 40.69C399.725 40.9436 398.921 41.1126 398.116 41.1126H389.436V33.0844C389.436 31.5633 389.605 30.2534 389.944 29.1126C390.283 27.9718 390.918 27.0422 391.765 26.2394C393.077 25.0563 395.11 24.4647 397.904 24.4647C400.36 24.4647 402.901 24.9718 405.442 25.9436C407.982 26.9154 410.226 28.3943 412.047 30.2957C415.265 33.676 417.34 37.8168 418.314 42.676L420.347 40.8168L415.816 15.9295C415.096 16.2676 414.546 16.4788 414.164 16.5633C414.08 16.5633 413.529 16.6478 412.513 16.8591C410.523 17.2394 408.787 17.4084 407.262 17.4084C406.712 17.4084 406.373 17.4084 406.161 17.4084H365.342V20.2816C366.231 20.2816 366.951 20.3661 367.459 20.5352C367.967 20.7042 368.433 21.1267 368.941 21.8028C369.449 22.4788 369.746 23.1126 369.831 23.7887C369.915 24.4647 370 25.4366 370 26.7042C370 26.8309 370 27.1267 370 27.507V79.8167C370 81.3378 369.915 82.5632 369.703 83.535C369.534 84.5068 369.111 85.4364 368.433 86.366C367.925 86.9998 367.502 87.4223 367.163 87.6336C366.824 87.8449 366.02 88.0984 364.792 88.3519V91.1406H409.888C410.819 91.0984 411.709 91.1829 412.555 91.2674ZM359.033 58.183C359.033 56.6618 359.118 55.3942 359.329 54.4224C359.499 53.4506 359.922 52.521 360.6 51.7182C361.828 50.0703 363.31 49.2252 365.003 49.2252V46.7323H335.363V49.4788C335.574 49.4788 335.913 49.4788 336.337 49.4788C337.522 49.4788 338.623 50.0281 339.555 51.0844C340.063 51.6759 340.402 52.2675 340.571 52.9435C340.74 53.5773 340.867 54.7182 340.867 56.4083V73.9857C340.867 76.859 340.317 79.1829 339.258 80.9153C337.988 82.9435 335.998 83.9153 333.33 83.9153C327.317 83.9153 322.448 80.3238 318.722 73.1407C315.546 67.0562 313.979 60.2956 313.979 52.859C313.979 52.2675 313.979 51.7604 314.021 51.3802C314.021 50.9999 314.064 50.5773 314.106 50.1126C314.699 42.8872 316.266 37.014 318.891 32.4506C322.024 26.9577 326.301 24.2112 331.679 24.2112C335.151 24.2112 339.089 25.4366 343.493 27.845C345.271 28.8168 347.05 30.5915 348.828 33.0844C351.157 36.3379 352.639 39.1689 353.359 41.5351L354.926 40.5633L352.385 15.2112C351.623 15.8873 350.903 16.6056 350.225 17.2816C349.336 17.8732 348.151 18.169 346.711 18.169C345.441 18.169 344.043 17.9577 342.519 17.5774C339.555 16.8591 336.929 16.3098 334.601 16.014C332.272 15.676 329.816 15.5493 327.19 15.5493C322.321 15.5493 317.832 16.2676 313.767 17.7042C309.702 19.1408 306.103 21.4647 303.012 24.5915C300.683 26.9999 298.82 29.6619 297.38 32.6619V69.8872C298.397 72.2533 299.582 74.4928 300.98 76.6055C304.79 82.3519 309.406 86.3237 314.911 88.5209C319.314 90.2956 325.243 91.1829 332.653 91.1829H363.606V88.3097C362.632 88.0139 361.87 87.6758 361.362 87.3378C360.854 86.9575 360.388 86.366 359.964 85.4787C359.541 84.5914 359.287 83.7463 359.202 82.9012C359.202 81.9716 359.202 81.0421 359.202 80.1125V58.183H359.033ZM4.7425 107.957C5.16594 107.873 5.67407 107.831 6.30922 107.831C10.9247 108.549 15.4555 109.31 19.9016 110.028C24.3477 110.788 28.328 111.127 31.8849 111.127C36.331 111.127 45.0114 110.155 49.881 108.169C55.8091 105.76 60.0435 102.38 63.6427 98.0279C68.0464 92.6618 70.3754 86.2392 70.3754 78.7181C70.3754 73.0139 69.105 67.352 65.9293 62.5351C64.5743 60.4646 62.7958 58.7745 60.8057 57.3801C57.1641 54.8449 52.9721 53.2393 48.78 51.7604C43.9952 50.0703 39.2527 48.3379 34.4678 46.5633C31.1227 45.3379 27.6928 44.6619 25.0675 41.9999C21.2566 38.1126 22.2728 31.7323 25.7874 27.9718C27.3964 26.2394 30.2758 24.8873 32.52 24.338C40.8194 22.3943 46.7475 26.2394 54.3694 33.6337C56.1478 35.3661 58.0533 39.2957 58.0533 39.2957L62.2877 15.507C61.7796 15.8028 59.7894 17.1549 58.9002 17.8309C57.2488 19.0985 54.5388 17.4507 52.8874 16.8591C50.6855 16.0563 48.4836 15.3802 46.1971 14.8309C41.6239 13.7324 36.9661 13.2253 32.266 13.2253C28.582 13.2253 24.6017 13.4788 21.0025 14.3239C18.3772 14.9155 15.5825 16.2676 13.2536 17.5774C5.8011 21.9295 2.15953 29.6196 0.550469 37.8591C-0.423438 42.8872 -0.169375 48.0844 1.90547 52.8168C4.82719 59.5351 10.0778 65.2815 16.8952 68.0703C16.8952 68.0703 40.2266 75.8449 40.2689 75.8449C41.9627 76.3942 43.9105 78.0421 44.9267 79.4787C48.653 84.5914 46.8322 93.0843 42.2591 97.0984C35.103 103.352 22.2305 101.028 15.1591 95.7463C11.3058 92.8308 9.23094 88.4787 7.57954 84.0421C7.49485 83.7885 5.71641 78.9294 5.84344 78.9294C5.8011 78.9294 2.37125 78.9294 2.37125 78.9294L0 111.127C0.550469 110.619 2.75235 109.225 3.30281 108.76C3.85328 108.338 4.36141 108.042 4.7425 107.957ZM492.966 79.9435C494.194 82.3942 496.227 87.8449 499.064 96.2533C501.181 102.422 502.917 105.845 504.272 106.521C505.288 107.028 506.516 107.45 507.998 107.746V110.957H468.153V107.577C469.592 107.408 470.863 106.901 472.048 106.056C472.684 105.634 472.98 104.746 472.98 103.521C472.98 101.831 472.387 99.4223 471.244 96.3378C470.439 94.2674 468.28 89.366 464.681 81.6759C463.622 79.4787 462.309 77.028 460.7 74.4083C459.091 71.7463 457.482 69.1688 455.915 66.5491L451.723 68.9153V95.535C451.723 97.5632 451.85 99.211 452.062 100.479C452.316 101.788 452.74 102.887 453.375 103.817C454.222 105.084 455.026 105.929 455.831 106.352C456.212 106.521 457.101 106.817 458.583 107.197V110.873H420.855V107.197C421.744 107.197 422.464 107.07 423.014 106.774C423.565 106.479 424.242 105.972 425.047 105.211C426.105 104.197 426.783 103.056 427.122 101.704C427.418 100.394 427.587 98.6617 427.587 96.5068L427.757 34.6901C427.757 32.7464 427.714 31.2253 427.672 30.1689C427.46 26.8309 427.037 24.5492 426.444 23.2816C425.851 22.014 425.132 21.169 424.369 20.7042C423.565 20.2394 422.633 19.9859 421.532 19.9859V16.3098H476.876C483.058 16.3098 487.758 17.4507 490.976 19.6901C494.237 21.9718 496.057 25.2253 496.565 29.4929C496.65 30.6337 496.735 31.4365 496.735 31.9436C496.735 36.5915 495.253 40.9858 492.246 45.0421C490.087 47.9154 487.25 50.6196 483.778 53.0703C481.152 54.8872 479.628 55.8168 479.204 55.8168C481.999 60.0421 484.455 63.9294 486.53 67.5632C488.52 71.3238 490.68 75.3801 492.966 79.9435ZM471.202 36.7182C471.202 33.4647 470.058 30.845 467.814 28.9858C465.866 27.338 463.368 26.5351 460.361 26.5351C458.287 26.5351 456.381 26.9577 454.603 27.845C453.587 28.352 452.909 29.1971 452.528 30.338C452.147 31.5211 451.935 32.8732 451.935 34.4365V58.1407L454.687 57.0844C458.71 55.4365 462.225 53.0703 465.273 49.9013C469.211 45.845 471.202 41.4506 471.202 36.7182Z" fill="white"/>
<path d="M138.125 130.31L136.262 130.986C135.542 128.028 134.357 125.281 132.621 122.831C130.673 120.042 128.598 118.014 126.354 116.704C124.11 115.394 121.484 114.718 118.52 114.718L118.562 165.295C118.562 165.887 118.562 166.394 118.562 166.774C118.562 168.507 118.69 170.07 118.901 171.464C119.113 172.859 119.621 174.084 120.341 175.183C121.061 176.281 121.865 176.999 122.712 177.38C123.559 177.76 124.66 177.929 125.973 177.929V180.845H92.0553V178.014C92.267 177.971 92.5634 177.929 92.9022 177.929C94.5112 177.929 96.0356 177.126 97.4753 175.478C98.3222 174.507 98.8726 173.492 99.042 172.436C99.2114 171.38 99.2961 169.816 99.2961 167.704V114.718C96.8401 114.718 94.6806 115.141 92.9445 115.943C91.1661 116.746 89.2606 118.141 87.1858 120.126C86.1695 121.183 85.1109 122.662 84.0947 124.648C82.8667 127.014 82.0622 129.042 81.6811 130.732L79.8179 130.267L84.264 104.493C84.8145 105.084 85.492 105.591 86.2965 106.056C86.6353 106.225 87.1011 106.31 87.6939 106.352C88.2867 106.394 88.6254 106.436 88.7101 106.436C89.7687 106.436 90.3615 106.436 90.4886 106.436H127.624C128.259 106.436 128.81 106.436 129.275 106.394C129.784 106.352 130.461 106.183 131.35 105.887C132.24 105.591 133.086 105.127 133.933 104.493L138.125 130.31ZM174.964 112.436C175.727 112.563 176.277 112.69 176.658 112.817C177.674 113.155 178.394 113.619 178.775 114.169C179.326 115.014 179.707 115.986 179.919 116.957C180.13 117.972 180.257 119.746 180.257 122.366V129H161.668V122.155C161.668 118.859 162.304 116.197 163.574 114.253C164.04 113.577 164.633 113.112 165.437 112.859C166.242 112.605 166.877 112.479 167.385 112.479V109.69H137.448V112.479C138.422 112.605 139.184 112.859 139.819 113.155C140.454 113.45 141.005 114 141.513 114.803C142.021 115.605 142.317 116.366 142.444 117.126C142.571 117.887 142.614 119.07 142.614 120.633C142.614 120.845 142.614 121.183 142.614 121.648L142.741 168.718C142.741 170.281 142.529 171.971 142.106 173.704C141.682 175.478 141.259 176.535 140.878 176.999C140.073 177.76 139.523 178.225 139.226 178.394C138.93 178.563 138.337 178.732 137.532 178.943V181.69H167.215V178.901C165.522 178.901 164.124 178.14 162.981 176.661C162.388 175.859 162.05 175.056 161.88 174.295C161.753 173.535 161.668 172.478 161.668 171.126V136.352H180.13V171.295C180.13 172.436 180.046 173.45 179.834 174.338C179.665 175.225 179.326 176.028 178.818 176.746C177.801 178.183 176.404 178.901 174.668 178.901V181.69H204.817V178.901C203.25 178.901 201.98 178.394 201.09 177.338C200.625 176.746 200.286 175.901 200.074 174.718C199.863 173.535 199.735 172.267 199.735 170.873L199.608 121.986C199.608 120.422 199.693 119.028 199.905 117.887C200.117 116.746 200.455 115.69 201.048 114.718C201.641 113.746 202.361 113.155 203.292 112.859C203.843 112.774 204.393 112.648 204.986 112.479V109.69H175.049V112.436H174.964ZM208.247 112.436C209.39 112.648 210.279 112.859 210.914 113.112C211.549 113.366 212.015 113.788 212.354 114.295C212.989 115.267 213.37 116.324 213.54 117.549C213.709 118.732 213.794 120.38 213.794 122.45V171.042C213.794 172.225 213.709 173.281 213.497 174.126C213.328 174.971 212.947 175.774 212.396 176.492C211.295 178.056 209.898 178.859 208.247 178.859V181.647H238.395V178.859C237.591 178.859 236.913 178.69 236.278 178.309C235.643 177.971 235.135 177.507 234.669 176.999C234.203 176.45 233.865 175.605 233.653 174.464C233.441 173.323 233.314 172.014 233.314 170.619V122.239C233.314 120.464 233.399 119.028 233.526 117.887C233.653 116.746 234.034 115.732 234.627 114.845C235.05 114.169 235.474 113.662 235.939 113.366C236.405 113.07 237.252 112.774 238.565 112.479V109.69H208.289V112.436H208.247ZM297.677 176.239C297.296 175.478 297.041 174.591 296.914 173.535C296.787 172.521 296.745 171.591 296.745 170.83V122.957C296.745 121.605 296.83 120.126 297.041 118.521C297.211 116.915 297.677 115.563 298.439 114.464C299.074 113.535 299.751 112.986 300.471 112.732C300.979 112.648 301.445 112.521 301.953 112.436V109.648H283.195V112.436C284.211 112.563 285.058 112.817 285.736 113.197C286.413 113.577 287.006 114.126 287.514 114.929C288.022 115.732 288.319 116.45 288.446 117.126C288.573 117.803 288.615 118.774 288.615 120.084C288.615 120.295 288.615 120.549 288.615 120.929V137.197L276.124 119.07C275.7 118.436 275.404 117.929 275.234 117.549C274.853 116.746 274.684 115.986 274.684 115.31C274.684 114.845 274.811 114.38 275.107 113.915C275.404 113.45 275.7 113.112 275.997 112.817C276.293 112.563 276.674 112.436 277.098 112.436V109.648H241.571V112.436C243.095 112.69 244.323 113.366 245.17 114.464C245.594 114.972 245.89 115.943 246.06 117.338C246.229 118.732 246.314 120.211 246.314 121.732C246.314 122.366 246.314 122.957 246.314 123.549V167.619C246.314 170.07 246.144 172.267 245.763 174.211C245.382 176.154 244.789 177.422 243.9 178.056C243.392 178.394 243.011 178.605 242.714 178.647C242.418 178.732 241.868 178.816 241.105 178.901V181.69H259.186V178.901C258.212 178.69 257.408 178.394 256.815 178.014C256.222 177.591 255.714 176.999 255.375 176.239C255.036 175.478 254.782 174.676 254.655 173.83C254.528 172.985 254.444 171.971 254.444 170.788L254.486 122.619L283.026 161.45C284.677 163.69 285.778 165.464 286.371 166.774C287.218 168.633 287.683 170.619 287.683 172.732C287.683 175.901 286.667 177.845 284.635 178.647C284.084 178.859 283.576 178.943 283.026 178.943V181.732H301.784V178.943C300.895 178.859 300.133 178.563 299.413 178.098C298.65 177.633 298.058 176.999 297.677 176.239ZM412.005 138.929L397.1 133.394C394.474 132.422 392.569 131.197 391.341 129.633C390.367 128.366 389.859 126.972 389.859 125.366C389.859 124.31 389.986 123.295 390.282 122.324C390.452 121.732 390.706 121.056 391.087 120.295C391.68 119.028 392.569 118.141 393.755 117.507C394.94 116.915 396.38 116.619 397.989 116.619C399.852 116.619 401.8 117 403.832 117.76C405.865 118.521 407.643 119.535 409.252 120.803C411.2 122.324 413.021 124.901 414.672 128.493C415.392 129.971 415.773 131.07 415.9 131.788L418.145 130.986L416.027 107.577C415.604 107.831 415.054 108.211 414.291 108.718C413.317 109.31 412.343 109.732 411.412 110.028C411.285 110.07 411.073 110.112 410.734 110.112C407.897 109.479 405.187 108.845 402.52 108.253C399.852 107.619 397.481 107.324 395.321 107.324C393.67 107.324 392.103 107.493 390.579 107.831C384.439 109.267 379.485 111.929 375.716 115.817C371.482 120.169 369.365 125.493 369.365 131.788C369.365 136.352 370.55 140.239 372.964 143.45C375.166 146.366 378.214 148.605 382.152 150.084L398.539 156.338C400.021 156.929 401.207 157.859 402.096 159.169C402.986 160.478 403.451 162.042 403.451 163.816C403.451 164.577 403.409 165.169 403.324 165.633C402.816 168.507 401.461 170.746 399.217 172.309C396.973 173.873 394.305 174.676 391.129 174.676C388.25 174.676 385.328 173.957 382.322 172.521C379.315 171.084 376.732 169.014 374.531 166.309C373.006 164.45 371.651 161.915 370.508 158.662C369.576 156.169 369.068 154.183 368.941 152.746L366.697 153.042L369.111 182.83C369.576 182.45 370.042 182.07 370.508 181.732C370.974 181.394 371.397 181.14 371.736 181.098C372.075 181.014 372.54 180.971 373.091 180.971C377.029 181.563 380.882 182.112 384.651 182.704C388.419 183.295 391.807 183.549 394.856 183.549C398.624 183.549 402.562 182.788 406.712 181.225C411.751 179.366 415.816 176.704 418.907 173.323C422.633 169.14 424.496 164.154 424.496 158.281C424.496 153.38 423.395 149.281 421.193 145.986C419.034 142.817 415.943 140.45 412.005 138.929ZM362.547 176.028C362.124 175.14 361.87 174.295 361.785 173.45C361.785 172.521 361.785 171.591 361.785 170.661V148.732C361.785 147.211 361.87 145.943 362.081 144.971C362.251 144 362.674 143.07 363.352 142.267C364.58 140.619 366.062 139.774 367.756 139.774V137.281H338.115V140.028C338.327 140.028 338.665 140.028 339.089 140.028C340.274 140.028 341.375 140.577 342.307 141.633C342.815 142.225 343.154 142.817 343.323 143.45C343.493 144.084 343.62 145.225 343.62 146.915V164.492C343.62 167.366 343.069 169.69 342.011 171.422C340.74 173.45 338.75 174.422 336.082 174.422C330.07 174.422 325.2 170.83 321.474 163.647C318.298 157.563 316.731 150.802 316.731 143.366C316.731 142.774 316.731 142.267 316.774 141.887C316.774 141.507 316.816 141.084 316.858 140.619C317.451 133.394 319.018 127.521 321.643 122.915C324.777 117.422 329.053 114.676 334.431 114.676C337.903 114.676 341.841 115.901 346.245 118.31C348.023 119.281 349.802 121.056 351.58 123.549C353.909 126.802 355.391 129.633 356.111 132L357.678 131.028L355.137 105.676C354.375 106.352 353.655 107.07 352.978 107.746C352.088 108.338 350.903 108.634 349.463 108.634C348.193 108.634 346.795 108.422 345.271 108.042C342.307 107.324 339.682 106.774 337.353 106.479C335.024 106.141 332.568 106.014 329.943 106.014C325.073 106.014 320.585 106.732 316.52 108.169C312.455 109.605 308.855 111.929 305.764 115.056C303.435 117.464 301.572 120.126 300.133 123.126V160.352C301.149 162.718 302.334 164.957 303.732 167.07C307.543 172.816 312.158 176.788 317.663 178.985C322.067 180.76 327.995 181.647 335.405 181.647H366.358V178.859C365.384 178.563 364.622 178.225 364.114 177.887C363.394 177.549 362.928 176.915 362.547 176.028Z" fill="white"/>
<path d="M74.525 121.605H0V128.324H74.525V121.605Z" fill="white"/>
<path d="M508.125 121.605H421.574V128.324H508.125V121.605Z" fill="white"/>
<path d="M497.327 0H0V6.08449H497.327V0Z" fill="white"/>
</g>
<defs>
<clipPath id="clip0">
<rect width="508.125" height="183.718" fill="white"/>
</clipPath>
</defs>
</svg>
