<svg width="63" height="64" viewBox="0 0 63 64" fill="none" xmlns="http://www.w3.org/2000/svg">
<path d="M61.7748 13.0098C59.5931 13.9848 57.2494 14.6436 54.7855 14.9414C57.3278 13.4072 59.2298 10.9925 60.1365 8.14797C57.748 9.57883 55.1339 10.586 52.4078 11.1257C50.5746 9.15161 48.1465 7.84315 45.5004 7.40347C42.8543 6.96379 40.1383 7.41748 37.7741 8.69411C35.4099 9.97074 33.5297 11.9989 32.4255 14.4637C31.3212 16.9284 31.0547 19.6919 31.6673 22.3251C26.8276 22.08 22.093 20.8113 17.7709 18.6014C13.4488 16.3914 9.63568 13.2896 6.5791 9.49717C5.53397 11.3154 4.93303 13.4235 4.93303 15.6687C4.93186 17.6898 5.42537 19.68 6.36976 21.4627C7.31415 23.2453 8.68022 24.7653 10.3468 25.8878C8.41402 25.8258 6.5239 25.2991 4.83374 24.3515V24.5096C4.83355 27.3444 5.80579 30.0919 7.58551 32.286C9.36523 34.48 11.8428 35.9855 14.5978 36.547C12.8049 37.0364 10.9251 37.1085 9.10046 36.7578C9.87777 39.197 11.3919 41.3299 13.4309 42.858C15.4698 44.3861 17.9316 45.233 20.4714 45.2799C16.1599 48.6935 10.8351 50.5452 5.35369 50.537C4.38272 50.5373 3.41257 50.4801 2.44824 50.3658C8.01217 53.9737 14.489 55.8886 21.1037 55.8811C43.4955 55.8811 55.7366 37.1768 55.7366 20.9548C55.7366 20.4278 55.7235 19.8955 55.7 19.3685C58.081 17.6318 60.1363 15.4813 61.7696 13.0177L61.7748 13.0098V13.0098Z" fill="#808080"/>
</svg>
