<svg width="65" height="66" viewBox="0 0 65 66" fill="none" xmlns="http://www.w3.org/2000/svg">
<g clip-path="url(#clip0)">
<path d="M32.6806 8.1835H33.0418C36.3785 8.19578 53.285 8.3186 57.8435 9.55491C59.2216 9.93222 60.4773 10.6677 61.4853 11.6878C62.4932 12.7079 63.218 13.9769 63.5873 15.368C63.9972 16.9237 64.2855 18.9828 64.4803 21.1075L64.5209 21.5332L64.6102 22.5976L64.6427 23.0233C64.9065 26.765 64.939 30.2693 64.943 31.0348V31.3418C64.939 32.136 64.9024 35.8777 64.6102 39.775L64.5777 40.2048L64.5412 40.6305C64.3382 42.9722 64.0378 45.2974 63.5873 47.0086C63.2191 48.4003 62.4947 49.6699 61.4866 50.6902C60.4785 51.7105 59.2221 52.4455 57.8435 52.8217C53.1348 54.099 35.2379 54.189 32.7577 54.1931H32.1813C30.927 54.1931 25.7393 54.1686 20.3 53.9803L19.61 53.9557L19.2568 53.9393L18.5627 53.9107L17.8686 53.882C13.3629 53.6814 9.0723 53.358 7.09547 52.8176C5.71733 52.4418 4.46132 51.7073 3.45325 50.6878C2.44519 49.6683 1.72048 48.3995 1.35171 47.0086C0.901141 45.3015 0.600761 42.9722 0.397801 40.6305L0.365327 40.2007L0.332854 39.775C0.132523 37.001 0.0215132 34.2213 0 31.4401L0 30.9406C0.00811839 30.0605 0.0405919 27.0188 0.259788 23.662L0.288203 23.2403L0.30038 23.0274L0.332854 22.6017L0.422156 21.5373L0.462748 21.1116C0.657589 18.9869 0.945792 16.9237 1.35577 15.3721C1.72391 13.9804 2.44835 12.7108 3.45646 11.6905C4.46456 10.6703 5.7209 9.93519 7.09953 9.559C9.07636 9.02681 13.3669 8.69931 17.8726 8.49463L18.5627 8.46597L19.2609 8.44141L19.61 8.42913L20.3041 8.40047C24.1672 8.27373 28.032 8.20277 31.8971 8.1876H32.6806V8.1835ZM25.9788 21.3244V41.0481L42.8529 31.1904L25.9788 21.3244Z" fill="#808080"/>
</g>
<defs>
<clipPath id="clip0">
<rect width="64.9471" height="65.5" fill="white"/>
</clipPath>
</defs>
</svg>
